<?xml version="1.0" standalone="no"?>
<!DOCTYPE svg PUBLIC "-//W3C//DTD SVG 20010904//EN"
 "http://www.w3.org/TR/2001/REC-SVG-20010904/DTD/svg10.dtd">
<svg version="1.0" xmlns="http://www.w3.org/2000/svg"
 width="700.000000pt" height="700.000000pt" viewBox="0 0 700.000000 700.000000"
 preserveAspectRatio="xMidYMid meet">
<metadata>
Created by potrace 1.11, written by Peter Selinger 2001-2013
</metadata>
<g transform="translate(0.000000,700.000000) scale(0.100000,-0.100000)"
fill="#000000" stroke="none">
<path d="M4180 6965 c-71 -19 -128 -47 -220 -110 -91 -62 -87 -59 -1160 -899
-393 -308 -798 -625 -900 -705 -328 -257 -364 -285 -415 -326 -28 -22 -66 -52
-85 -67 -33 -25 -134 -103 -155 -120 -5 -4 -46 -36 -90 -71 -44 -35 -277 -217
-518 -406 -241 -189 -464 -369 -495 -400 -31 -31 -70 -84 -87 -116 -25 -51
-30 -73 -32 -150 -6 -227 79 -388 250 -469 93 -44 173 -60 257 -52 65 7 163
44 210 79 26 19 703 540 755 581 17 13 107 83 200 155 94 72 195 151 225 174
30 24 206 160 390 302 184 143 341 265 350 271 8 7 143 112 300 234 157 122
292 227 301 235 9 7 54 41 99 76 173 135 245 190 501 389 315 245 350 270 392
277 52 8 95 -17 259 -149 84 -68 171 -136 192 -153 21 -16 87 -68 146 -115 59
-47 188 -148 285 -225 98 -77 232 -183 299 -236 67 -53 254 -200 416 -328 162
-128 306 -242 319 -253 47 -40 144 -98 200 -119 79 -30 194 -30 283 0 207 69
332 252 324 475 -2 70 -7 92 -39 156 -51 107 -101 157 -334 342 -113 89 -287
228 -387 308 -214 170 -210 168 -250 201 -17 14 -159 129 -316 255 -315 254
-484 390 -515 416 -11 9 -99 80 -195 158 -403 326 -503 387 -650 394 -36 2
-85 -2 -110 -9z"/>
<path d="M4190 4759 c-222 -27 -406 -163 -500 -372 -38 -86 -53 -156 -52 -251
1 -272 155 -497 409 -601 78 -31 99 -35 208 -40 200 -8 398 90 523 260 89 120
125 230 126 380 0 120 -12 172 -66 280 -116 233 -385 376 -648 344z"/>
<path d="M2525 3771 c-242 -66 -427 -264 -472 -506 -15 -81 -8 -218 15 -290
81 -256 306 -434 568 -451 292 -19 571 174 647 449 69 246 0 489 -187 660 -49
44 -155 104 -226 128 -95 30 -253 35 -345 10z"/>
<path d="M5635 3780 c-114 -23 -263 -107 -346 -196 -119 -128 -177 -267 -177
-426 0 -110 13 -169 58 -265 49 -106 125 -194 225 -260 110 -74 205 -105 330
-109 296 -9 538 164 627 451 26 85 30 239 8 330 -30 125 -109 252 -209 338
-52 45 -170 111 -216 122 -11 2 -38 9 -60 14 -47 12 -182 12 -240 1z"/>
<path d="M4145 3006 c-294 -64 -503 -316 -506 -611 -4 -358 272 -645 621 -645
281 0 534 180 617 438 26 80 36 225 21 302 -48 243 -244 453 -478 512 -72 18
-200 20 -275 4z"/>
<path d="M2565 2033 c-77 -17 -177 -55 -195 -73 -3 -3 -23 -17 -45 -31 -89
-58 -181 -169 -229 -277 -105 -237 -50 -501 143 -692 135 -134 272 -193 448
-192 203 1 405 113 518 287 31 49 73 135 80 165 2 8 8 37 15 65 15 65 11 204
-7 275 -85 326 -418 542 -728 473z"/>
<path d="M4171 1269 c-117 -22 -234 -79 -325 -159 -54 -47 -147 -181 -163
-235 -49 -163 -56 -257 -29 -384 25 -117 78 -214 165 -302 123 -123 261 -179
442 -180 297 -1 542 180 624 464 92 318 -124 685 -460 782 -66 20 -187 26
-254 14z"/>
</g>
</svg>
