<?xml version="1.0" standalone="no"?>
<!DOCTYPE svg PUBLIC "-//W3C//DTD SVG 1.1//EN" "http://www.w3.org/Graphics/SVG/1.1/DTD/svg11.dtd" >
<svg xmlns="http://www.w3.org/2000/svg">
<metadata>Generated by IcoMoon</metadata>
<defs>
<font id="ht" horiz-adv-x="1024">
<font-face units-per-em="1024" ascent="960" descent="-64" />
<missing-glyph horiz-adv-x="1024" />
<glyph unicode="&#x20;" horiz-adv-x="512" d="" />
<glyph unicode="&#xe900;" glyph-name="virtual_assistant" horiz-adv-x="1163" d="M1125.774 566.997c-23.486 40.709-61.064 73.59-104.905 90.813l-6.263 26.618c-12.526 50.104-45.407 89.248-92.379 111.168s-98.642 20.355-144.049-1.566l-7.829-3.131-39.144 50.104c-79.853 100.208-205.113 140.917-327.242 106.471-123.694-34.446-209.81-133.089-227.034-259.914l-6.263-46.972-43.841-25.052c-100.208-53.235-147.18-165.969-118.997-275.572s118.997-191.021 231.731-191.021h54.801c4.697-31.315 14.092-161.272-61.064-201.982-87.682-45.407 212.942 45.407 239.56 201.982h424.318c95.511 0 181.627 59.498 230.165 142.483 46.972 82.985 46.972 192.587-1.566 275.572zM604.379 300.82c-9.394-9.394-21.92-12.526-37.578-12.526s-28.183 4.697-37.578 12.526c-9.394 7.829-12.526 20.355-12.526 36.012s4.697 28.183 12.526 36.012c9.394 7.829 21.92 12.526 37.578 12.526s28.183-4.697 37.578-12.526c9.394-7.829 12.526-20.355 12.526-36.012s-3.131-26.618-12.526-36.012zM699.89 563.865c-9.394-15.657-28.183-32.881-54.801-51.67-18.789-14.092-25.052-23.486-29.749-31.315s-3.131-17.223-3.131-28.183v-37.578h-62.63v42.275c0 18.789-7.829 34.446 0 48.538s15.657 28.183 37.578 43.841c20.355 14.092 31.315 26.618 37.578 34.446 6.263 9.394 7.829 18.789 7.829 29.749 0 12.526-4.697 21.92-14.092 28.183s-21.92 9.394-39.144 9.394c-28.183 0-62.63-9.394-98.642-28.183l-31.315 62.63c42.275 23.486 87.682 36.012 136.22 36.012 39.144 0 70.459-9.394 93.945-28.183s34.446-43.841 34.446-76.722c0-18.789-4.697-37.578-14.092-53.235z" />
<glyph unicode="&#xe901;" glyph-name="interviews" horiz-adv-x="624" d="M156.947 756.956l206.337-87.803-47.194-110.851-206.337 87.803 47.194 110.851zM433.526 874.392c-25.243 68.047-100.973 104.266-170.118 79.023s-104.266-100.973-79.023-170.118c1.098-3.293 2.195-5.488 3.293-8.78l-28.536 12.073c-9.878 4.39-20.853 0-25.243-9.878l-54.877-129.509c-4.39-9.878 0-20.853 9.878-25.243l223.897-95.486c9.878-4.39 20.853 0 25.243 9.878l54.877 129.509c4.39 9.878 0 20.853-9.878 25.243l-28.536 12.073c68.047 26.341 104.266 102.071 79.023 171.215zM121.826 585.741l-39.511-94.388c-4.39-10.975-7.683-21.951-9.878-34.024l-27.438-141.582c-3.293-15.365 5.488-30.731 19.756-37.316l-52.682-124.021c-34.024-80.12 4.39-172.313 83.413-205.239 80.12-34.024 172.313 4.39 205.239 83.413l52.682 124.021c52.682 106.461 147.070 186.581 262.311 220.605 6.585 2.195 9.878 8.78 7.683 15.365s-8.78 9.878-15.365 7.683c-120.729-35.121-221.702-120.729-277.676-233.775l-52.682-124.021c-28.536-68.047-106.461-99.876-174.508-71.34s-99.876 106.461-71.34 174.508l54.877 122.924c14.268-6.585 31.829-1.098 40.609 12.073l80.12 119.631c6.585 8.78 10.975 18.658 15.365 28.536l40.609 95.486-141.582 61.462z" />
<glyph unicode="&#xe902;" glyph-name="native-articles" horiz-adv-x="773" d="M689.865-21.949v-7.956c0-18.184-14.775-34.095-34.095-34.095h-621.674c-19.321 0-34.095 14.775-34.095 34.095v871.707c0 18.184 14.775 34.095 34.095 34.095h7.956v-863.751c0-19.321 15.911-34.095 34.095-34.095h613.718zM84.102 896.355v-813.745c0-34.095 28.413-62.508 62.508-62.508h563.711c34.095 0 62.508 28.413 62.508 62.508v813.745c0 34.095-28.413 62.508-62.508 62.508h-563.711c-35.232 0-62.508-27.276-62.508-62.508zM710.322 917.949c11.365 0 20.457-9.092 20.457-20.457v-813.745c0-11.365-9.092-20.457-20.457-20.457h-563.711c-11.365 0-20.457 9.092-20.457 20.457v812.608c0 11.365 9.092 20.457 20.457 20.457h563.711zM188.661 187.17v-42.051h480.746v42.051h-480.746zM422.784 521.305v-42.051h246.624v42.051h-246.624zM188.661 270.135v-42.051h480.746v42.051h-480.746zM422.784 604.271v-42.051h246.624v42.051h-246.624zM188.661 354.238v-42.051h480.746v42.051h-480.746zM188.661 688.373v-209.119h187.525v209.119h-187.525zM188.661 833.847v-104.559h480.746v104.559h-480.746zM422.784 688.373v-42.051h246.624v42.051h-246.624zM188.661 437.203v-42.051h480.746v42.051h-480.746z" />
<glyph unicode="&#xe903;" glyph-name="native-videos" d="M960 768h-128v128h128v-128zM960 512h-128v128h128v-128zM960 256h-128v128h128v-128zM960 0h-128v128h128v-128zM320 192v512l448-256-448-256zM192 768h-128v128h128v-128zM192 512h-128v128h128v-128zM192 256h-128v128h128v-128zM192 0h-128v128h128v-128zM0-64h1024v1024h-1024v-1024z" />
<glyph unicode="&#xe904;" glyph-name="socialmedia-blasts" horiz-adv-x="1599" d="M58.329 587.342v-40.506h-27.544c-16.203 0-30.785-14.582-30.785-30.785v-115.038c0-16.203 14.582-30.785 30.785-30.785h27.544v-35.646c0-50.228 40.506-92.354 92.354-92.354h22.684l71.291-291.646c1.62-8.101 9.722-14.582 17.823-14.582h166.886c11.342 0 19.443 9.722 16.203 21.063l-14.582 63.19c-3.241 11.342-12.962 17.823-22.684 17.823-27.544 0-50.228 17.823-56.709 43.747l-40.506 160.405h95.595v38.886c111.797-17.823 296.506-64.81 424.506-187.949 1.62-22.684 21.063-40.506 45.367-37.266 21.063 3.241 35.646 21.063 35.646 42.127v236.557c51.848 19.443 89.114 69.671 89.114 128s-37.266 108.557-89.114 128v233.316c0 21.063-14.582 40.506-35.646 42.127-24.304 3.241-43.747-14.582-45.367-37.266-129.62-123.139-314.329-170.127-426.127-187.949v38.886h-254.38c-51.848 0-92.354-42.127-92.354-92.354zM155.544 582.481h152.304v-243.038h-152.304v243.038zM1458.228 601.924c-59.949 0-111.797-38.886-131.241-92.354h-249.519v-97.215h247.899c19.443-53.468 71.291-92.354 131.241-92.354 77.772 0 140.962 63.19 140.962 140.962s-63.19 140.962-139.342 140.962zM1458.228 417.215c-24.304 0-43.747 19.443-43.747 43.747s19.443 43.747 43.747 43.747 43.747-19.443 43.747-43.747c-1.62-24.304-21.063-43.747-43.747-43.747zM1458.228 960c-59.949 0-111.797-38.886-131.241-92.354h-90.734l-191.19-194.43 69.671-68.051 162.025 165.266h50.228c19.443-53.468 71.291-92.354 131.241-92.354 77.772 0 140.962 63.19 140.962 140.962-1.62 77.772-64.81 140.962-140.962 140.962zM1458.228 776.911c-24.304 0-43.747 19.443-43.747 43.747s19.443 43.747 43.747 43.747 43.747-19.443 43.747-43.747c-1.62-24.304-21.063-43.747-43.747-43.747zM1234.633 54.278h90.734c19.443-53.468 71.291-92.354 131.241-92.354 77.772 0 140.962 63.19 140.962 140.962s-63.19 140.962-140.962 140.962c-59.949 0-111.797-38.886-131.241-92.354h-50.228l-162.025 165.266-69.671-68.051 191.19-194.43zM1458.228 145.013c24.304 0 43.747-19.443 43.747-43.747s-19.443-43.747-43.747-43.747-43.747 21.063-43.747 45.367c0 22.684 19.443 42.127 43.747 42.127z" />
<glyph unicode="&#xe905;" glyph-name="banner-ad" horiz-adv-x="1305" d="M59.983 919.297c-10.711 0-19.28-8.569-19.28-19.28v-904.033c0-10.711 8.569-19.28 19.28-19.28h1184.669c10.711 0 19.28 8.569 19.28 19.28v904.033c0 10.711-8.569 19.28-19.28 19.28h-1184.669zM1244.653-64h-1184.669c-34.276 0-59.983 27.849-59.983 59.983v904.033c0 34.276 27.849 59.983 59.983 59.983h1184.669c34.276 0 59.983-27.849 59.983-59.983v-904.033c0-34.276-25.707-59.983-59.983-59.983zM40.703 799.331h1244.653v-40.703h-1244.653v40.703zM531.28 655.799h334.192v-40.703h-334.192v40.703zM531.28 574.393h336.335v-40.703h-336.335v40.703zM531.28 495.13h338.477v-40.703h-338.477v40.703zM224.937 394.444h646.962v-40.703h-646.962v40.703zM224.937 313.038h646.962v-40.703h-646.962v40.703zM224.937 233.774h407.029v-40.703h-407.029v40.703zM443.448 435.146h-175.665c-23.565 0-42.845 19.28-42.845 42.845v137.105c0 23.565 19.28 42.845 42.845 42.845h175.665c23.565 0 42.845-19.28 42.845-42.845v-137.105c0-23.565-19.28-42.845-42.845-42.845zM119.967 857.172c0-10.648-8.632-19.28-19.28-19.28s-19.28 8.632-19.28 19.28c0 10.648 8.632 19.28 19.28 19.28s19.28-8.632 19.28-19.28zM179.95 857.172c0-10.648-8.632-19.28-19.28-19.28s-19.28 8.632-19.28 19.28c0 10.648 8.632 19.28 19.28 19.28s19.28-8.632 19.28-19.28zM237.791 857.172c0-10.648-8.632-19.28-19.28-19.28s-19.28 8.632-19.28 19.28c0 10.648 8.632 19.28 19.28 19.28s19.28-8.632 19.28-19.28zM927.598 660.084h154.243v-385.607h-154.243v385.607z" />
<glyph unicode="&#xe906;" glyph-name="email-blasts" horiz-adv-x="1180" d="M945.432 699.417c1.309 2.619 2.619 6.547 2.619 9.166l-3.928 26.189c-1.309 6.547-6.547 10.476-13.095 10.476h-1.309l-739.847-129.637c-6.547-1.309-11.785-7.857-10.476-14.404l5.238-26.189c1.309-6.547 6.547-10.476 13.095-10.476h1.309l739.847 129.637c1.309 1.309 3.928 2.619 6.547 5.238zM958.527 603.826h-1.309l-601.043-104.757c-3.928 0-6.547-2.619-7.857-5.238s-2.619-6.547-2.619-9.166l3.928-26.189c1.309-6.547 6.547-10.476 13.095-10.476h1.309l601.043 104.757c3.928 0 6.547 2.619 7.857 5.238 2.619 2.619 2.619 6.547 2.619 9.166l-3.928 26.189c-1.309 6.547-6.547 10.476-13.095 10.476zM1179.826 590.731l-104.757 66.783c-1.309 1.309-2.619 3.928-3.928 5.238l-40.593 231.775c0 1.309-2.619 2.619-3.928 2.619l-259.274-44.522c-1.309 0-5.238 0-6.547 1.309l-166.302 104.757c-1.309 1.309-3.928 1.309-6.547 0l-298.558-187.253c-1.309-1.309-3.928-2.619-6.547-2.619l-237.013-41.903c-1.309 0-2.619-2.619-2.619-3.928l15.714-92.972c0-1.309-1.309-3.928-2.619-5.238l-53.688-34.046c-1.309-1.309-2.619-2.619-2.619-2.619 0-1.309 0-2.619 0-5.238v-644.256c0-1.309 1.309-3.928 3.928-3.928h1175.898c1.309 0 3.928 1.309 3.928 3.928v644.256c0 1.309 0 3.928 0 5.238-1.309 0-2.619 1.309-3.928 2.619zM591.877 234.558l-460.931 290.701-27.499 157.136 883.887 154.517 54.997-318.199-450.455-284.153z" />
<glyph unicode="&#xe907;" glyph-name="adverts" horiz-adv-x="1445" d="M329.143 466.286h95.086l-47.543 181.029zM742.4 698.514h-36.571v-338.286h31.086c34.743 0 58.514 9.143 73.143 27.429s21.943 49.371 21.943 93.257v87.771c0 47.543-7.314 80.457-20.114 98.743-14.629 21.943-36.571 31.086-69.486 31.086zM1411.657 938.057h-1378.743c-18.286 0-32.914-14.629-32.914-32.914v-738.743c0-18.286 14.629-32.914 32.914-32.914h625.371c18.286 0 32.914-14.629 32.914-32.914v-47.543c0-18.286-14.629-32.914-32.914-32.914h-144.457c-18.286 0-32.914-14.629-32.914-32.914s14.629-32.914 32.914-32.914h415.086c18.286 0 32.914 14.629 32.914 32.914s-14.629 32.914-32.914 32.914h-142.629c-18.286 0-32.914 14.629-32.914 32.914v47.543c0 18.286 14.629 32.914 32.914 32.914h625.371c18.286 0 32.914 14.629 32.914 32.914v738.743c0 18.286-14.629 32.914-32.914 32.914zM473.6 276.114l-27.429 104.229h-140.8l-27.429-104.229h-106.057l159.086 508.343h93.257l159.086-508.343h-109.714zM932.571 490.057c0-67.657-18.286-118.857-53.029-157.257s-84.114-56.686-146.286-56.686h-129.829v508.343h135.314c58.514 0 106.057-18.286 142.629-56.686s53.029-89.6 53.029-155.429v-82.286zM1080.686 610.743c10.971-10.971 31.086-23.771 58.514-34.743 49.371-18.286 85.943-40.229 107.886-65.829s32.914-58.514 32.914-98.743c0-43.886-14.629-78.629-42.057-104.229s-65.829-36.571-115.2-36.571c-32.914 0-62.171 7.314-89.6 20.114s-47.543 32.914-64 58.514c-14.629 25.6-23.771 54.857-23.771 89.6h102.4c0-29.257 5.486-51.2 16.457-64s29.257-20.114 56.686-20.114c36.571 0 53.029 18.286 53.029 56.686 0 20.114-5.486 36.571-16.457 47.543s-29.257 21.943-58.514 32.914c-51.2 20.114-87.771 42.057-109.714 67.657s-32.914 56.686-32.914 91.429c0 42.057 14.629 76.8 45.714 102.4s69.486 38.4 115.2 38.4c31.086 0 58.514-7.314 84.114-20.114 23.771-12.8 43.886-31.086 56.686-54.857s20.114-51.2 20.114-82.286h-102.4c0 23.771-5.486 42.057-14.629 54.857-10.971 12.8-25.6 18.286-43.886 18.286s-31.086-5.486-42.057-16.457c-9.143-10.971-14.629-25.6-14.629-42.057 3.657-14.629 9.143-27.429 20.114-38.4z" />
<glyph unicode="&#xe908;" glyph-name="gallery" horiz-adv-x="1901" d="M1880.68 759.216c-13.386 13.386-26.771 20.078-46.85 20.078h-240.941v73.621c0 26.771-13.386 53.542-33.464 73.621s-46.85 33.464-73.621 33.464h-1070.85c-26.771 0-53.542-13.386-73.621-33.464s-26.771-46.85-26.771-73.621v-73.621h-247.634c-20.078 0-33.464-6.693-46.85-20.078s-20.078-33.464-20.078-46.85v-522.039c0-20.078 6.693-33.464 20.078-46.85s26.771-20.078 46.85-20.078h247.634v-80.314c0-26.771 13.386-53.542 33.464-73.621s46.85-33.464 73.621-33.464h1064.157c26.771 0 53.542 13.386 73.621 33.464s33.464 46.85 33.464 73.621v80.314h240.941c20.078 0 33.464 6.693 46.85 20.078s20.078 26.771 20.078 46.85v522.039c0 13.386-6.693 33.464-20.078 46.85zM66.928 170.248c-13.386 0-13.386 13.386-13.386 13.386v528.732c0 13.386 13.386 13.386 13.386 13.386h247.634v-348.026l-66.928 73.621-140.549-140.549v-80.314h207.477v-60.235h-247.634zM1499.19 43.085c0 0 0-20.078-13.386-20.078h-1070.85c-20.078 0-20.078 13.386-20.078 20.078v809.83c0 6.693 0 20.078 20.078 20.078h1064.157c6.693 0 20.078 0 20.078-20.078v-809.83zM1847.216 190.327c0-13.386-13.386-13.386-13.386-13.386h-240.941v53.542h200.784v187.399l-180.706 180.706-20.078-20.078v147.242h240.941c13.386 0 13.386-13.386 13.386-13.386v-522.039zM274.405 585.203c0-48.052-38.954-87.007-87.007-87.007s-87.007 38.954-87.007 87.007c0 48.052 38.954 87.007 87.007 87.007s87.007-38.954 87.007-87.007zM736.209 665.516c0-70.23-56.933-127.163-127.163-127.163s-127.163 56.933-127.163 127.163c0 70.23 56.933 127.163 127.163 127.163s127.163-56.933 127.163-127.163zM803.137 344.261l-107.085 107.085-214.17-214.17v-127.163h936.993v294.484l-274.405 281.098z" />
<glyph unicode="&#xe909;" glyph-name="ext-vr" horiz-adv-x="1998" d="M625.35 552.795l-323.368-403.783-82.981 403.783h-219.001l127.465-616.795h212.157l519.272 616.795h-233.544zM1452.591 747.843v-120.622h211.302v-212.157h121.477v176.227l-157.407 156.551h-175.372zM1785.37 747.843v212.157h-121.477v-176.227l157.407-156.551h176.227v120.622h-212.157zM1344.802 552.795h-409.771l-100.946-319.091h-171.094l-85.547-108.645h220.712l-60.739-191.626h256.642l60.739 189.915h76.992l89.825-189.915h288.294l-111.211 226.7c38.981 2.347 75.438 9.682 109.868 21.399 39.887 24.967 68.912 69.916 72.323 121.858 6.683 24.086 10.511 51.215 10.511 79.238 0 57.854-16.315 111.898-44.596 157.78-19.785 17.52-68.547 12.387-202.001 12.387zM1312.294 323.529c-5.266-10.247-11.838-19.004-19.642-26.487-7.103-6.86-15.292-12.588-24.288-16.902-7.529-3.819-15.738-6.006-24.437-6.227l-142.080-0.001 41.918 131.743h139.442c11.213-0.14 21.252-5.053 28.199-12.796 8.018-8.572 12.923-20.079 12.923-32.731 0-0.837-0.021-1.669-0.064-2.495-1.233-12.746-5.531-24.399-12.146-34.382z" />
<glyph unicode="&#xe90a;" glyph-name="homeowner" horiz-adv-x="974" d="M898.663 280.51c-67.171 46.393-143.663 70.57-221.626 90.087-11.318 2.838-25.824-0.491-37.142-5.116-102.106-41.732-203.616-41.522-305.861-0.245-8.098 3.359-17.503 5.31-27.364 5.31-6.462 0-12.729-0.838-18.697-2.411-51.559-15.969-103.943-32.297-153.665-53.987-62.896-27.296-116.051-67.066-134.307-139.038v-150.671c12.895-21.584 34.724-30.379 56.659-38.333 60.654-21.935 123.97-32.657 187.708-37.738 85.357-6.833 171.064-12.089 256.631-12.439 124.216-0.561 248.186 7.008 369.599 36.371 27.054 6.732 50.518 15.216 72.809 25.772 10.165 4.783 19.695 17.047 30.593 26.367v150.671c-11.318 45.061-37.703 79.4-75.335 105.399zM544.972 478.625c97.060 22.601 168.401 103.998 182.872 204.632 13.595 94.607-35.6 193.209-121.027 244.262-31.536 18.956-66.575 26.77-102.316 32.482h-34.97c-3.078-0.966-7.075-1.949-11.145-2.722-122.321-16.62-209.815-116.413-213.845-239.052-4.59-141.56 128.771-279.582 300.43-239.601z" />
<glyph unicode="&#xe90b;" glyph-name="vr-key" horiz-adv-x="2243" d="M512 968.83c195.048 0 363.276-109.714 451.048-268.19l1036.19-2.438 243.81-219.429-316.952-268.19-146.286 146.286-146.286-146.286-146.286 146.286-146.286-146.286h-377.905c-87.771-158.476-256-268.19-451.048-268.19-282.819 0-512 229.181-512 512 0 287.695 229.181 516.876 512 514.438v0zM341.333 603.116c-80.457 0-146.286-65.829-146.286-146.286s65.829-146.286 146.286-146.286 146.286 65.829 146.286 146.286c0 82.895-65.829 146.286-146.286 146.286z" />
<glyph unicode="&#xe90c;" glyph-name="cross-mark" d="M1024 807.952l-363.055-362.434 361.193-362.434-147.704-147.084-361.193 362.434-361.193-362.434-152.048 152.048 362.434 361.193-362.434 361.813 147.704 147.084 362.434-361.193 361.813 363.055 152.048-152.048z" />
<glyph unicode="&#xe90d;" glyph-name="close-popup-btn" d="M1024 854.588l-105.412 105.412-406.588-406.588-406.588 406.588-105.412-105.412 406.588-406.588-406.588-406.588 105.412-105.412 406.588 406.588 406.588-406.588 105.412 105.412-406.588 406.588z" />
<glyph unicode="&#xe90e;" glyph-name="ht-logo" horiz-adv-x="1445" d="M212.114 460.8c-1.829 20.114 9.143 36.571 27.429 51.2 149.943 117.029 298.057 234.057 448 351.086 27.429 21.943 54.857 43.886 82.286 64 51.2 40.229 76.8 42.057 128 0 78.629-62.171 155.429-126.171 234.057-188.343 23.771-18.286 47.543-36.571 69.486-54.857s34.743-40.229 29.257-69.486c-5.486-27.429-23.771-47.543-51.2-54.857-23.771-7.314-43.886 1.829-62.171 16.457-69.486 54.857-140.8 111.543-210.286 166.4-18.286 14.629-36.571 27.429-53.029 43.886-12.8 9.143-23.771 9.143-36.571-1.829-80.457-62.171-160.914-126.171-241.371-188.343-84.114-65.829-168.229-129.829-252.343-195.657-23.771-18.286-47.543-20.114-73.143-7.314-25.6 10.971-38.4 32.914-38.4 67.657zM835.657 632.686c51.2 0 93.257-42.057 93.257-91.429 0-51.2-43.886-95.086-93.257-95.086-51.2 0-93.257 42.057-93.257 95.086 0 49.371 40.229 91.429 93.257 91.429-1.829 0-1.829 0 0 0zM742.4 285.257c0 51.2 42.057 93.257 95.086 93.257 49.371 0 91.429-43.886 91.429-93.257 0-51.2-42.057-93.257-95.086-93.257-51.2 0-91.429 40.229-91.429 93.257zM835.657-64c-53.029 0-93.257 40.229-93.257 93.257 0 51.2 42.057 93.257 93.257 93.257 49.371 0 95.086-45.714 93.257-95.086-1.829-51.2-43.886-91.429-93.257-91.429zM694.857 396.8c0-51.2-42.057-93.257-93.257-93.257s-93.257 43.886-93.257 93.257c0 51.2 42.057 93.257 91.429 93.257 51.2 1.829 95.086-42.057 95.086-93.257zM694.857 142.629c0-51.2-43.886-95.086-93.257-95.086s-93.257 43.886-93.257 93.257c0 49.371 43.886 93.257 93.257 93.257 49.371 1.829 93.257-40.229 93.257-91.429zM1142.857 396.8c0-51.2-42.057-93.257-93.257-93.257s-95.086 43.886-95.086 93.257c0 49.371 45.714 93.257 95.086 93.257 53.029 0 95.086-42.057 93.257-93.257z" />
<glyph unicode="&#xe90f;" glyph-name="ic_share" horiz-adv-x="1568" d="M1559.387 457.192l-240.75 240.443c-5.821 5.821-12.865 8.882-21.134 8.882s-15.315-3.064-21.134-8.882c-5.821-5.821-8.882-12.865-8.882-21.134v-120.375h-105.367c-223.598 0-360.514-63.097-411.359-189.291-16.54-41.963-24.809-94.035-24.809-156.519 0-52.070 19.908-122.521 59.728-211.959 0.918-2.143 2.45-5.821 4.9-11.332 2.45-5.206 4.593-10.108 6.433-14.089s3.982-7.657 6.126-10.415c3.675-5.206 8.272-7.965 13.171-7.965 4.593 0 8.272 1.532 11.026 4.593s3.982 7.046 3.982 11.64c0 2.756-0.306 7.046-1.225 12.558s-1.225 9.19-1.225 11.026c-1.532 21.134-2.45 40.43-2.45 57.893 0 31.548 2.756 60.035 8.272 85.152s13.171 46.863 22.665 64.935c9.8 18.379 22.358 33.998 37.675 47.477 15.315 13.171 31.854 24.197 49.62 32.773s38.594 15.008 62.485 19.908c23.891 4.9 48.089 8.272 72.288 10.108s51.765 2.756 82.394 2.756h105.367v-120.375c0-8.272 3.064-15.315 8.882-21.134s12.865-8.882 21.134-8.882c8.272 0 15.315 3.064 21.134 8.882l240.75 240.443c5.821 5.821 8.882 12.865 8.882 21.134 0.306 8.882-2.756 15.929-8.576 21.747zM464.983 401.753c0-48.72-39.495-88.212-88.212-88.212s-88.212 39.495-88.212 88.212c0 48.72 39.495 88.212 88.212 88.212s88.212-39.495 88.212-88.212zM691.030 291.181c0-48.72-39.495-88.212-88.212-88.212s-88.212 39.495-88.212 88.212c0 48.72 39.495 88.212 88.212 88.212s88.212-39.495 88.212-88.212zM464.983 152.427c0-48.72-39.495-88.212-88.212-88.212s-88.212 39.495-88.212 88.212c0 48.72 39.495 88.212 88.212 88.212s88.212-39.495 88.212-88.212zM691.030 540.2c0-48.72-39.495-88.212-88.212-88.212s-88.212 39.495-88.212 88.212c0 48.72 39.495 88.212 88.212 88.212s88.212-39.495 88.212-88.212zM691.030 43.381c0-48.72-39.495-88.212-88.212-88.212s-88.212 39.495-88.212 88.212c0 48.72 39.495 88.212 88.212 88.212s88.212-39.495 88.212-88.212zM966.7 667.927v0c0 0 0 0.306 0 0-3.064 3.064-6.74 5.821-10.415 8.272-50.845 41.044-274.443 221.149-308.749 247.182-38.594 29.404-62.485 18.072-89.135 0-23.891-16.54-451.178-351.937-527.752-412.277-4.289-2.756-8.272-5.821-11.64-9.19 0 0 0 0 0 0v0c-11.64-11.64-18.99-27.567-18.99-45.331 0-35.53 28.793-64.017 64.017-64.017 17.154 0 32.773 6.74 44.107 17.766v0c0 0 475.682 367.253 483.952 373.378s13.476 6.126 18.072 2.143c4.593-3.675 266.48-208.589 266.48-208.589v0c11.64-11.332 27.262-18.379 44.719-18.379 35.53 0 64.017 28.793 64.017 64.017 0.306 17.458-7.046 33.692-18.683 45.026z" />
<glyph unicode="&#xe910;" glyph-name="armchair" d="M162.636 430.813v126.777c0 22.74-18.497 41.237-41.235 41.237h-80.181c-22.348 0-40.601-17.868-41.219-40.067 2.565-22.383 28.489-249.758 32.425-329.935 1.185-24.147 18.925-42.359 41.265-42.359h23.756c-6.634 12.282-10.408 26.325-10.408 41.237v116.836c0 44.115 32.994 80.649 75.597 86.275zM891.143 227.7v116.836c0 22.738-18.501 41.237-41.235 41.237h-675.816c-22.738 0-41.237-18.499-41.237-41.237v-116.836c0-22.74 18.499-41.237 41.237-41.237h675.816c22.735 0.002 41.235 18.499 41.235 41.237zM902.597 598.827c-22.738 0-41.235-18.497-41.235-41.235v-126.777c42.603-5.627 75.599-42.16 75.599-86.275v-116.836c0-14.91-3.771-28.954-10.408-41.237h23.756c22.337 0 40.078 18.212 41.261 42.359 3.936 80.177 29.863 307.552 32.429 329.935-0.618 22.201-18.873 40.067-41.222 40.067h-80.181zM147.735 144.738c-8.487-2.705-17.306-4.091-26.334-4.091h-20.644l-33.379-127.051c-3.215-12.237 4.1-24.764 16.335-27.977 1.953-0.512 3.91-0.757 5.838-0.757 10.157 0 19.438 6.807 22.141 17.094l37.403 142.378c-0.452 0.136-0.91 0.259-1.36 0.404zM923.239 140.646h-20.642c-9.030 0-17.846 1.386-26.336 4.091-0.45-0.143-0.908-0.27-1.36-0.407l37.403-142.376c2.703-10.286 11.982-17.094 22.141-17.094 1.927 0 3.886 0.244 5.836 0.757 12.237 3.215 19.552 15.74 16.337 27.977l-33.379 127.051zM893.515 895.643c-9.484 9.848-22.785 15.498-36.495 15.498h-690.043c-13.71 0-27.013-5.648-36.495-15.5-8.771-9.112-13.346-20.828-12.884-32.989 1.38-36.248 7.917-126.56 15.059-218.754 42.701-5.544 75.798-42.119 75.798-86.303v-125.998h607.091v125.998c0 43.657 32.306 79.9 74.265 86.106 7.447 92.466 15.204 182.562 16.59 218.951 0.461 12.161-4.115 23.879-12.888 32.992zM412.359 564.86h-13.744c-12.652 0-22.908 10.256-22.908 22.911 0 12.652 10.256 22.908 22.908 22.908h13.744c12.652 0 22.908-10.256 22.908-22.908 0-12.654-10.256-22.911-22.908-22.911zM412.359 734.387h-13.744c-12.652 0-22.908 10.256-22.908 22.908 0 12.654 10.256 22.911 22.908 22.911h13.744c12.652 0 22.908-10.256 22.908-22.911 0-12.652-10.256-22.908-22.908-22.908zM625.385 564.86h-13.746c-12.652 0-22.911 10.256-22.911 22.911 0 12.652 10.258 22.908 22.911 22.908h13.746c12.652 0 22.908-10.256 22.908-22.908 0-12.654-10.256-22.911-22.908-22.911zM625.385 734.387h-13.746c-12.652 0-22.911 10.256-22.911 22.908 0 12.654 10.258 22.911 22.911 22.911h13.746c12.652 0 22.908-10.256 22.908-22.911 0-12.652-10.256-22.908-22.908-22.908z" />
<glyph unicode="&#xe911;" glyph-name="bed" d="M116.578 576.998c0 53.443 43.479 96.924 96.924 96.924h217.572c33.785 0 63.572-17.387 80.926-43.67 17.356 26.285 47.141 43.67 80.926 43.67h217.574c53.443 0 96.922-43.481 96.922-96.924v-4.463h24.264v94.515c0 58.651-47.716 106.366-106.366 106.366h-626.64c-58.651 0-106.366-47.716-106.366-106.366v-94.515h24.264v4.463zM983.263 527.274h-942.527c-22.462 0-40.735-18.274-40.735-40.735v-236.477c0-22.462 18.274-40.735 40.735-40.735h16.957l-20.036-56.547c-4.175-11.781 1.993-24.716 13.772-28.889 2.5-0.884 5.051-1.306 7.559-1.306 9.315 0 18.043 5.797 21.331 15.080l25.392 71.664h812.578l25.392-71.664c3.289-9.283 12.014-15.080 21.331-15.080 2.508 0 5.059 0.422 7.559 1.306 11.781 4.175 17.947 17.11 13.772 28.889l-20.036 56.547h16.957c22.462 0 40.735 18.274 40.735 40.735v236.477c0 22.462-18.274 40.735-40.737 40.735zM592.926 628.659c-28.486 0-51.662-23.174-51.662-51.66v-4.463h320.895v4.463c0 28.486-23.174 51.66-51.66 51.66h-217.574zM213.503 628.659c-28.488 0-51.662-23.176-51.662-51.662v-4.461h320.895v4.463c0 28.486-23.174 51.66-51.662 51.66h-217.572z" />
<glyph unicode="&#xe912;" glyph-name="vr-cam9" horiz-adv-x="1445" d="M501.029 676.571c-16.457 0-31.086-10.971-40.229-32.914-10.971-21.943-14.629-49.371-14.629-80.457 0-34.743 5.486-62.171 16.457-82.286s29.257-29.257 47.543-29.257c21.943 0 38.4 14.629 56.686 45.714v53.029c0 40.229-9.143 71.314-20.114 93.257s-29.257 32.914-45.714 32.914zM1409.829 930.743c-7.314 1.829-14.629 3.657-21.943 3.657-12.8 0-29.257-5.486-40.229-14.629l-323.657-321.829v131.657c0 128-96.914 230.4-224.914 230.4h-563.2c-128 0-235.886-102.4-235.886-230.4v-563.2c0-128 107.886-230.4 235.886-230.4h563.2c128 0 224.914 102.4 224.914 230.4v133.486l325.486-321.829c9.143-10.971 23.771-14.629 36.571-14.629 5.486 0 16.457 1.829 23.771 3.657 18.286 7.314 34.743 25.6 34.743 47.543v868.571c0 20.114-14.629 38.4-34.743 47.543zM676.571 486.4c0-102.4-23.771-182.857-67.657-241.371-45.714-56.686-109.714-89.6-192-89.6h-14.629v109.714h10.971c45.714 0 80.457 9.143 102.4 32.914 23.771 23.771 36.571 56.686 42.057 100.571-25.6-25.6-51.2-38.4-80.457-38.4-45.714 0-82.286 18.286-107.886 54.857s-40.229 85.943-40.229 146.286c0 40.229 7.314 74.971 21.943 107.886s34.743 58.514 62.171 76.8c27.429 18.286 56.686 27.429 89.6 27.429s64-9.143 89.6-29.257c25.6-20.114 47.543-49.371 62.171-85.943s21.943-80.457 21.943-128v-43.886z" />
<glyph unicode="&#xe913;" glyph-name="vr-cam10" horiz-adv-x="1445" d="M1409.829 930.743c-7.314 1.829-14.629 3.657-21.943 3.657-12.8 0-29.257-5.486-40.229-14.629l-323.657-321.829v131.657c0 128-96.914 230.4-224.914 230.4h-563.2c-128 0-235.886-102.4-235.886-230.4v-563.2c0-128 107.886-230.4 235.886-230.4h563.2c128 0 224.914 102.4 224.914 230.4v133.486l325.486-321.829c9.143-10.971 23.771-14.629 36.571-14.629 5.486 0 16.457 1.829 23.771 3.657 18.286 7.314 34.743 25.6 34.743 47.543v868.571c0 20.114-14.629 38.4-34.743 47.543zM420.571 173.714h-128v449.829l-109.714-43.886v96.914l219.429 82.286h18.286v-585.143zM841.143 413.257c0-82.286-10.971-146.286-42.057-190.171-29.257-43.886-71.314-65.829-126.171-65.829s-100.571 21.943-129.829 64c-29.257 42.057-49.371 104.229-49.371 182.857v113.371c0 82.286 18.286 146.286 47.543 190.171s74.971 65.829 129.829 65.829 96.914-21.943 126.171-65.829c29.257-43.886 42.057-106.057 42.057-186.514v-107.886zM676.571 676.571c-36.571 0-54.857-43.886-54.857-129.829v-149.943c0-49.371 1.829-84.114 10.971-107.886s23.771-34.743 43.886-34.743c18.286 0 32.914 10.971 42.057 32.914s14.629 56.686 14.629 102.4v146.286c0 47.543-3.657 82.286-12.8 106.057-10.971 23.771-23.771 34.743-43.886 34.743z" />
<glyph unicode="&#xe914;" glyph-name="ht-sponsor" horiz-adv-x="1445" d="M1152 718.629c-71.314 144.457-201.143 241.371-320 241.371-32.914 0-64-7.314-91.429-20.114-62.171-31.086-102.4-91.429-117.029-168.229-126.171-126.171-288.914-235.886-288.914-237.714-89.6-60.343-120.686-170.057-74.971-261.486 34.743-69.486 104.229-109.714 181.029-109.714 23.771 0 49.371 3.657 73.143 12.8 1.829 0 186.514 64 362.057 89.6 38.4-18.286 76.8-27.429 115.2-27.429 32.914 0 64 7.314 91.429 20.114 65.829 32.914 109.714 100.571 122.514 190.171 9.143 85.943-9.143 182.857-53.029 270.629zM1139.2 458.971c-9.143-67.657-40.229-117.029-85.943-140.8-18.286-9.143-40.229-14.629-62.171-14.629-95.086 0-199.314 82.286-261.486 204.8-76.8 155.429-58.514 323.657 42.057 373.029 18.286 9.143 40.229 14.629 62.171 14.629 95.086 0 199.314-82.286 261.486-204.8 36.571-78.629 53.029-160.914 43.886-232.229zM916.114 691.2c-5.486 0-10.971-1.829-14.629-3.657-25.6-12.8-29.257-56.686-9.143-98.743 16.457-32.914 45.714-54.857 69.486-54.857 5.486 0 10.971 1.829 14.629 3.657 25.6 12.8 29.257 58.514 9.143 98.743-16.457 32.914-43.886 54.857-69.486 54.857zM863.086 574.171c-20.114 40.229-21.943 84.114-5.486 113.371l-140.8-42.057c5.486-40.229 20.114-82.286 40.229-124.343 20.114-40.229 45.714-76.8 74.971-106.057l117.029 87.771c-31.086 5.486-65.829 32.914-85.943 71.314zM746.057 206.629c-98.743-21.943-181.029-49.371-210.286-58.514l78.629-157.257c12.8-23.771 32.914-42.057 58.514-49.371 10.971-3.657 20.114-5.486 31.086-5.486 14.629 0 31.086 3.657 43.886 10.971l12.8 7.314c49.371 25.6 69.486 84.114 43.886 133.486l-58.514 118.857z" />
<glyph unicode="&#xe915;" glyph-name="vr-box" horiz-adv-x="1445" d="M722.286 960l-442.514-256v-512l442.514-256 442.514 256v512l-442.514 256zM722.286-9.143v0 455.314l-394.971 228.571v1.829l394.971 228.571 373.029-215.771-334.629-219.429 356.571 179.2v-429.714l-394.971-228.571z" />
<glyph unicode="&#xe916;" glyph-name="visualizer" horiz-adv-x="1445" d="M1280 495.543c-64 104.229-149.943 188.343-256 250.514-107.886 64-221.257 95.086-340.114 95.086s-232.229-31.086-340.114-95.086c-107.886-64-193.829-146.286-256-250.514-10.971-16.457-14.629-32.914-14.629-47.543s3.657-31.086 12.8-47.543c64-104.229 149.943-188.343 256-250.514 107.886-64 221.257-95.086 340.114-95.086s232.229 31.086 340.114 95.086c107.886 62.171 193.829 146.286 256 250.514 9.143 16.457 12.8 31.086 12.8 47.543 3.657 14.629-1.829 31.086-10.971 47.543zM810.057 755.2h45.714v-87.771h84.114v-42.057h-84.114l-45.714 42.057v87.771zM716.8 661.943h84.114l45.714-42.057v-87.771h-45.714v87.771h-84.114v42.057zM521.143 590.629l21.943-179.2 137.143 179.2h100.571l-173.714-230.4c0 0-12.8-16.457-16.457-21.943-9.143-12.8-16.457-12.8-16.457-12.8h-85.943c0 0-7.314 1.829-12.8 12.8-7.314 14.629-7.314 23.771-7.314 23.771l-34.743 226.743h87.771zM980.114 224.914c-91.429-54.857-190.171-82.286-296.229-82.286s-204.8 27.429-296.229 82.286c-91.429 54.857-166.4 129.829-226.743 223.086 69.486 107.886 155.429 186.514 259.657 241.371-27.429-47.543-42.057-98.743-42.057-153.6 0-84.114 29.257-155.429 89.6-215.771s131.657-89.6 215.771-89.6c84.114 0 155.429 29.257 215.771 89.6s89.6 131.657 89.6 215.771c0 54.857-14.629 106.057-42.057 153.6 104.229-54.857 190.171-133.486 259.657-241.371-60.343-93.257-137.143-168.229-226.743-223.086z" />
<glyph unicode="&#xe917;" glyph-name="chick" horiz-adv-x="1445" d="M967.314 352.914c-47.543 36.571-117.029 32.914-159.086-12.8-23.771-25.6-54.857-38.4-85.943-38.4s-62.171 14.629-85.943 38.4c-42.057 43.886-111.543 49.371-159.086 12.8-76.8-60.343-122.514-160.914-122.514-268.8v-29.257c0-42.057 42.057-74.971 126.171-95.086 64-16.457 149.943-23.771 241.371-23.771 62.171 0 367.543 5.486 367.543 120.686v29.257c0 106.057-45.714 206.629-122.514 266.971zM1042.286 56.686c0-9.143-18.286-31.086-87.771-47.543-60.343-14.629-142.629-23.771-230.4-23.771s-171.886 9.143-230.4 23.771c-71.314 16.457-91.429 36.571-91.429 47.543v29.257c0 93.257 40.229 179.2 104.229 230.4 12.8 9.143 27.429 14.629 43.886 14.629 20.114 0 38.4-7.314 51.2-21.943 32.914-34.743 76.8-53.029 120.686-53.029s87.771 18.286 120.686 53.029c25.6 25.6 65.829 29.257 93.257 7.314 65.829-51.2 104.229-137.143 104.229-230.4l1.829-29.257zM1016.686 559.543c-14.629 18.286-42.057 126.171-54.857 177.371-5.486 21.943-9.143 40.229-12.8 51.2-29.257 102.4-120.686 171.886-226.743 171.886-1.829 0-3.657 0-5.486 0v0h-3.657c-31.086 0-60.343-7.314-87.771-21.943-62.171-27.429-107.886-82.286-128-146.286-1.829-7.314-5.486-20.114-9.143-38.4-10.971-49.371-34.743-164.571-60.343-195.657-14.629-18.286-32.914-45.714-20.114-71.314 16.457-34.743 69.486-40.229 186.514-40.229h3.657c38.4-43.886 82.286-67.657 126.171-67.657s87.771 23.771 126.171 67.657c115.2 0 170.057 5.486 188.343 40.229 10.971 29.257-7.314 54.857-21.943 73.143zM833.829 868.571v5.486c32.914-23.771 56.686-58.514 67.657-98.743 1.829-5.486 3.657-14.629 7.314-25.6-9.143-3.657-20.114-5.486-31.086-5.486-25.6 0-47.543 10.971-64 29.257 14.629 31.086 20.114 62.171 20.114 95.086zM786.286 901.486v-32.914c0-106.057-85.943-192-192-192-23.771 0-47.543 3.657-69.486 12.8 3.657 18.286 7.314 34.743 10.971 53.029 3.657 16.457 5.486 29.257 7.314 34.743 16.457 51.2 53.029 95.086 102.4 117.029h1.829c20.114 10.971 42.057 16.457 64 16.457h3.657c1.829 0 3.657 0 5.486 0 23.771 1.829 45.714-1.829 65.829-9.143zM493.714 499.2c-27.429 1.829-38.4 7.314-42.057 9.143 1.829 3.657 3.657 9.143 12.8 20.114 18.286 21.943 32.914 65.829 45.714 115.2 9.143-3.657 16.457-5.486 25.6-7.314 0-62.171 14.629-109.714 27.429-138.971-25.6 0-49.371 0-69.486 1.829zM722.286 429.714c-40.229 0-74.971 31.086-96.914 58.514-3.657 3.657-38.4 54.857-40.229 142.629 1.829 0 5.486 0 7.314 0 78.629 0 149.943 38.4 195.657 102.4 18.286-16.457 42.057-29.257 67.657-32.914v-53.029c1.829-100.571-38.4-157.257-38.4-157.257-20.114-29.257-54.857-60.343-95.086-60.343v0zM819.2 488.229v0 0 0zM839.314 471.771v0 0 0zM950.857 499.2c-20.114-1.829-45.714-3.657-73.143-3.657 14.629 31.086 29.257 82.286 27.429 148.114v54.857c5.486 1.829 9.143 1.829 14.629 3.657 21.943-85.943 40.229-153.6 58.514-175.543 9.143-10.971 10.971-16.457 12.8-20.114-1.829 0-12.8-3.657-40.229-7.314v0z" />
<glyph unicode="&#xe918;" glyph-name="vr-rotate" horiz-adv-x="1445" d="M418.743 471.771c-12.8 0-23.771 5.486-32.914 18.286-9.143 10.971-12.8 21.943-12.8 42.057h-89.6c0-42.057 12.8-71.314 36.571-96.914 23.771-23.771 56.686-36.571 95.086-36.571 42.057 0 76.8 12.8 102.4 36.571s38.4 56.686 38.4 98.743c0 25.6-5.486 47.543-16.457 65.829s-27.429 32.914-47.543 42.057c18.286 9.143 31.086 23.771 42.057 40.229 10.971 18.286 16.457 36.571 16.457 58.514 0 40.229-12.8 73.143-36.571 95.086s-56.686 34.743-98.743 34.743c-23.771 0-45.714-5.486-65.829-16.457s-34.743-25.6-45.714-43.886c-10.971-18.286-16.457-42.057-16.457-64h89.6c0 14.629 3.657 27.429 10.971 36.571s18.286 14.629 31.086 14.629c12.8 0 23.771-5.486 31.086-14.629 7.314-10.971 10.971-23.771 10.971-43.886 0-18.286-3.657-34.743-10.971-45.714s-20.114-16.457-36.571-16.457h-42.057v-76.8h43.886c34.743 0 53.029-21.943 53.029-65.829 0-18.286-3.657-32.914-12.8-43.886-9.143-12.8-21.943-18.286-36.571-18.286zM729.6 398.629c25.6 0 49.371 7.314 69.486 20.114s36.571 32.914 47.543 56.686c10.971 23.771 16.457 51.2 16.457 82.286 0 47.543-9.143 85.943-29.257 113.371-20.114 29.257-45.714 42.057-80.457 42.057-29.257 0-53.029-10.971-71.314-32.914 3.657 36.571 16.457 62.171 36.571 82.286s45.714 29.257 80.457 29.257h5.486v78.629h-16.457c-40.229 0-74.971-10.971-104.229-31.086s-53.029-49.371-69.486-87.771-23.771-82.286-23.771-133.486v-32.914c0-56.686 12.8-100.571 38.4-135.314s58.514-51.2 100.571-51.2zM682.057 601.6c3.657 10.971 9.143 20.114 16.457 27.429s16.457 10.971 29.257 10.971c14.629 0 25.6-7.314 34.743-23.771 9.143-14.629 12.8-36.571 12.8-60.343s-3.657-43.886-12.8-60.343-20.114-23.771-34.743-23.771c-14.629 0-25.6 7.314-32.914 23.771s-12.8 40.229-12.8 73.143v32.914zM1022.171 398.629c42.057 0 76.8 16.457 100.571 51.2 23.771 32.914 36.571 82.286 36.571 146.286v84.114c0 62.171-12.8 109.714-36.571 142.629-21.943 32.914-56.686 49.371-98.743 49.371s-76.8-16.457-100.571-49.371c-23.771-32.914-36.571-82.286-36.571-144.457v-85.943c0-60.343 12.8-107.886 36.571-140.8 23.771-36.571 56.686-53.029 98.743-53.029zM976.457 696.686c3.657 65.829 16.457 100.571 43.886 100.571 14.629 0 25.6-9.143 32.914-27.429s10.971-45.714 10.971-82.286v-111.543c0-34.743-3.657-60.343-10.971-78.629-7.314-16.457-18.286-25.6-32.914-25.6s-25.6 9.143-32.914 27.429c-7.314 18.286-10.971 45.714-10.971 82.286v115.2zM1250.743 722.286c25.6 0 45.714 9.143 60.343 25.6s21.943 40.229 21.943 71.314v12.8c0 31.086-7.314 54.857-21.943 71.314s-34.743 25.6-60.343 25.6c-25.6 0-45.714-9.143-60.343-25.6s-21.943-40.229-21.943-71.314v-12.8c0-31.086 7.314-54.857 21.943-71.314s34.743-25.6 60.343-25.6zM1221.486 832c0 18.286 1.829 31.086 7.314 40.229s12.8 14.629 21.943 14.629c9.143 0 16.457-3.657 21.943-12.8 3.657-9.143 5.486-23.771 5.486-42.057v-21.943c-1.829-29.257-10.971-43.886-27.429-43.886-18.286 0-27.429 18.286-27.429 53.029v12.8zM208.457 140.8c131.657-67.657 323.657-113.371 532.114-113.371-1.829-9.143-3.657-18.286-5.486-27.429l-3.657-16.457c0-14.629 18.286-21.943 32.914-12.8l215.771 135.314c14.629 9.143 14.629 27.429 0 32.914l-217.6 100.571c-14.629 7.314-32.914-3.657-32.914-20.114l3.657-14.629c3.657-12.8 5.486-25.6 7.314-36.571-43.886 3.657-95.086 7.314-153.6 14.629-237.714 27.429-782.629 188.343-351.086 415.086 3.657 1.829 1.829 5.486-1.829 5.486-312.686-78.629-294.4-323.657-25.6-462.629zM1261.714 581.486c-5.486 1.829-9.143-5.486-3.657-9.143 276.114-186.514-56.686-316.343-215.771-369.371-10.971-3.657-12.8-18.286-1.829-23.771 54.857-31.086 58.514-42.057 14.629-91.429-9.143-9.143 1.829-25.6 14.629-20.114 137.143 53.029 376.686 177.371 374.857 321.829 0 95.086-93.257 162.743-182.857 192z" />
<glyph unicode="&#xe919;" glyph-name="vr-face" horiz-adv-x="1445" d="M1073.371 649.143c-27.429 171.886-166.4 310.857-351.086 310.857s-323.657-138.971-351.086-310.857c-21.943-25.6-34.743-56.686-34.743-91.429v-104.229c0-36.571 14.629-73.143 42.057-98.743 3.657-3.657 7.314-7.314 12.8-10.971l9.143-76.8c7.314-71.314 40.229-137.143 91.429-188.343l87.771-87.771c34.743-34.743 85.943-56.686 138.971-56.686h12.8c53.029 0 102.4 20.114 138.971 56.686l87.771 87.771c51.2 51.2 84.114 117.029 91.429 188.343l7.314 76.8c3.657 3.657 9.143 7.314 12.8 10.971 27.429 25.6 42.057 60.343 42.057 98.743v104.229c-3.657 34.743-16.457 65.829-38.4 91.429zM998.4 272.457c-7.314-60.343-34.743-117.029-76.8-159.086l-87.771-87.771c-25.6-25.6-64-42.057-104.229-42.057h-12.8c-40.229 0-78.629 16.457-104.229 42.057l-87.771 87.771c-43.886 42.057-71.314 98.743-76.8 159.086l-5.486 49.371c12.8-3.657 25.6-3.657 38.4-3.657l186.514 10.971c36.571 1.829 74.971 1.829 111.543 0l186.514-10.971c1.829 0 5.486 0 7.314 0 9.143 0 20.114 1.829 29.257 3.657l-3.657-49.371zM537.6 619.886h47.543l45.714-153.6 45.714 153.6h47.543l-71.314-206.629h-43.886l-71.314 206.629zM901.486 416.914v-3.657h-45.714l-38.4 74.971h-34.743v-74.971h-40.229v206.629h74.971c23.771 0 42.057-5.486 56.686-16.457 12.8-10.971 20.114-25.6 20.114-45.714 0-14.629-3.657-25.6-9.143-34.743-7.314-9.143-16.457-18.286-27.429-21.943l43.886-84.114zM980.114 693.029v0l-199.314 10.971c-38.4 1.829-78.629 1.829-117.029 0l-199.314-10.971c-12.8 0-23.771-3.657-34.743-7.314 12.8 47.543 38.4 89.6 69.486 126.171 111.543 124.343 299.886 133.486 424.229 23.771 7.314-7.314 16.457-14.629 23.771-23.771 32.914-36.571 56.686-80.457 69.486-126.171-12.8 3.657-23.771 7.314-36.571 7.314zM819.2 586.971h-34.743v-62.171h34.743c10.971 0 18.286 1.829 23.771 7.314s9.143 12.8 9.143 21.943-3.657 18.286-7.314 23.771c-5.486 5.486-14.629 9.143-25.6 9.143zM810.057 252.343c0-1.829 0-1.829 0 0l-5.486-1.829c-54.857-10.971-109.714-10.971-164.571 0l-5.486 1.829c-12.8 3.657-25.6-5.486-29.257-18.286s5.486-25.6 18.286-29.257c0 0 0 0 0 0l5.486-1.829c60.343-12.8 124.343-12.8 184.686 0l5.486 1.829c12.8 1.829 21.943 14.629 18.286 27.429-1.829 12.8-14.629 21.943-27.429 20.114zM753.371 142.629c0 0-20.114 1.829-31.086 1.829s-31.086-1.829-31.086-1.829c-12.8-3.657-20.114-16.457-18.286-27.429 1.829-12.8 14.629-20.114 25.6-18.286 14.629 1.829 29.257 1.829 43.886 0 12.8-1.829 25.6 7.314 25.6 20.114 5.486 12.8-3.657 23.771-14.629 25.6z" />
<glyph unicode="&#xe91a;" glyph-name="vr-play" horiz-adv-x="1445" d="M722.286 960c-281.6 0-512-230.4-512-512s230.4-512 512-512 512 230.4 512 512-230.4 512-512 512zM722.286-10.971c-252.343 0-458.971 204.8-458.971 458.971s206.629 458.971 458.971 458.971 458.971-206.629 458.971-458.971-206.629-458.971-458.971-458.971zM932.571 458.971l-288.914 171.886c-10.971 7.314-25.6-1.829-25.6-14.629v-341.943c0-12.8 14.629-20.114 25.6-14.629l288.914 171.886c10.971 5.486 10.971 21.943 0 27.429z" />
<glyph unicode="&#xe91b;" glyph-name="vr-label" horiz-adv-x="1445" d="M727.771 897.829c-12.8 12.8-31.086 21.943-49.371 23.771l-378.514 36.571c-3.657 0-5.486 0-7.314 0-21.943 0-42.057-9.143-56.686-23.771-16.457-16.457-25.6-40.229-23.771-65.829l36.571-380.343c1.829-18.286 10.971-36.571 23.771-49.371l480.914-480.914c16.457-16.457 36.571-23.771 56.686-23.771s42.057 7.314 56.686 23.771l343.771 343.771c31.086 31.086 31.086 82.286 0 115.2l-482.743 480.914zM1170.286 341.943l-341.943-341.943c-5.486-5.486-12.8-7.314-16.457-7.314s-10.971 0-16.457 7.314l-482.743 480.914c-3.657 3.657-7.314 9.143-7.314 14.629l-36.571 378.514c0 7.314 1.829 14.629 7.314 20.114 3.657 3.657 10.971 7.314 16.457 7.314 0 0 1.829 0 1.829 0l378.514-38.4c5.486 0 10.971-3.657 14.629-7.314l482.743-479.086c5.486-5.486 7.314-12.8 7.314-16.457 0-5.486-1.829-12.8-7.314-18.286zM435.2 832c-25.6 0-49.371-9.143-67.657-27.429-36.571-36.571-36.571-98.743 0-135.314v0c18.286-18.286 43.886-27.429 67.657-27.429s49.371 9.143 67.657 27.429c18.286 18.286 27.429 42.057 27.429 67.657s-9.143 49.371-27.429 67.657c-18.286 16.457-42.057 27.429-67.657 27.429zM462.629 707.657c-14.629-14.629-40.229-14.629-54.857 0v0c-14.629 14.629-14.629 40.229 0 54.857 7.314 7.314 16.457 10.971 27.429 10.971s20.114-3.657 27.429-10.971c7.314-7.314 10.971-16.457 10.971-27.429s-3.657-20.114-10.971-27.429z" />
<glyph unicode="&#xe91c;" glyph-name="vr-cam1" horiz-adv-x="1445" d="M1409.829 930.743c-7.314 1.829-14.629 3.657-21.943 3.657-12.8 0-29.257-5.486-40.229-14.629l-323.657-321.829v131.657c0 128-96.914 230.4-224.914 230.4h-563.2c-128 0-235.886-102.4-235.886-230.4v-563.2c0-128 107.886-230.4 235.886-230.4h563.2c128 0 224.914 102.4 224.914 230.4v133.486l325.486-321.829c9.143-10.971 23.771-14.629 36.571-14.629 5.486 0 16.457 1.829 23.771 3.657 18.286 7.314 34.743 25.6 34.743 47.543v868.571c0 20.114-14.629 38.4-34.743 47.543zM603.429 173.714h-109.714v449.829l-109.714-43.886v96.914l212.114 82.286h7.314v-585.143z" />
<glyph unicode="&#xe91d;" glyph-name="vr-cam2" horiz-adv-x="1445" d="M1409.829 930.743c-7.314 1.829-14.629 3.657-21.943 3.657-12.8 0-29.257-5.486-40.229-14.629l-323.657-321.829v131.657c0 128-96.914 230.4-224.914 230.4h-563.2c-128 0-235.886-102.4-235.886-230.4v-563.2c0-128 107.886-230.4 235.886-230.4h563.2c128 0 224.914 102.4 224.914 230.4v133.486l325.486-321.829c9.143-10.971 23.771-14.629 36.571-14.629 5.486 0 16.457 1.829 23.771 3.657 18.286 7.314 34.743 25.6 34.743 47.543v868.571c0 20.114-14.629 38.4-34.743 47.543zM676.571 173.714h-347.429v73.143l159.086 206.629c20.114 29.257 34.743 53.029 43.886 74.971s14.629 42.057 14.629 62.171c0 27.429-5.486 47.543-14.629 62.171s-21.943 21.943-40.229 21.943c-18.286 0-34.743-9.143-45.714-25.6s-16.457-36.571-16.457-73.143h-117.029c0 36.571 7.314 69.486 23.771 100.571 14.629 31.086 36.571 54.857 64 71.314s58.514 25.6 93.257 25.6c53.029 0 95.086-14.629 124.343-43.886s43.886-71.314 43.886-126.171c0-32.914-7.314-67.657-23.771-102.4s-45.714-74.971-89.6-126.171l-76.8-109.714h204.8v-91.429z" />
<glyph unicode="&#xe91e;" glyph-name="vr-cam3" horiz-adv-x="1445" d="M1409.829 930.743c-7.314 1.829-14.629 3.657-21.943 3.657-12.8 0-29.257-5.486-40.229-14.629l-323.657-321.829v131.657c0 128-96.914 230.4-224.914 230.4h-563.2c-128 0-235.886-102.4-235.886-230.4v-563.2c0-128 107.886-230.4 235.886-230.4h563.2c128 0 224.914 102.4 224.914 230.4v133.486l325.486-321.829c9.143-10.971 23.771-14.629 36.571-14.629 5.486 0 16.457 1.829 23.771 3.657 18.286 7.314 34.743 25.6 34.743 47.543v868.571c0 20.114-14.629 38.4-34.743 47.543zM636.343 212.114c-32.914-31.086-76.8-47.543-129.829-47.543-49.371 0-91.429 18.286-122.514 49.371s-47.543 69.486-47.543 124.343h113.371c0-18.286 5.486-42.057 16.457-56.686s25.6-23.771 42.057-23.771c20.114 0 34.743 7.314 45.714 21.943s16.457 36.571 16.457 60.343c0 58.514-21.943 89.6-67.657 89.6h-45.714v91.429h47.543c20.114 0 36.571 5.486 45.714 20.114s14.629 32.914 14.629 56.686c0 23.771-5.486 40.229-14.629 54.857-9.143 12.8-23.771 20.114-40.229 20.114s-29.257-3.657-38.4-14.629c-10.971-14.629-14.629-27.429-14.629-45.714h-113.371c0 18.286 7.314 54.857 21.943 78.629s32.914 42.057 58.514 54.857c25.6 12.8 53.029 20.114 84.114 20.114 53.029 0 95.086-14.629 126.171-45.714 31.086-29.257 45.714-71.314 45.714-122.514 0-25.6-7.314-51.2-20.114-73.143-14.629-21.943-31.086-40.229-54.857-51.2 27.429-10.971 47.543-29.257 62.171-53.029 12.8-23.771 20.114-51.2 20.114-84.114-1.829-51.2-18.286-93.257-51.2-124.343z" />
<glyph unicode="&#xe91f;" glyph-name="vr-cam4" horiz-adv-x="1445" d="M404.114 393.143h89.6v199.314l-1.829-3.657zM1409.829 930.743c-7.314 1.829-14.629 3.657-21.943 3.657-12.8 0-29.257-5.486-40.229-14.629l-323.657-321.829v131.657c0 128-96.914 230.4-224.914 230.4h-563.2c-128 0-235.886-102.4-235.886-230.4v-563.2c0-128 107.886-230.4 235.886-230.4h563.2c128 0 224.914 102.4 224.914 230.4v133.486l325.486-321.829c9.143-10.971 23.771-14.629 36.571-14.629 5.486 0 16.457 1.829 23.771 3.657 18.286 7.314 34.743 25.6 34.743 47.543v868.571c0 20.114-14.629 38.4-34.743 47.543zM658.286 301.714h-54.857v-128h-109.714v128h-197.486l-5.486 67.657 202.971 389.486h109.714v-365.714h54.857v-91.429z" />
<glyph unicode="&#xe920;" glyph-name="vr-cam5" horiz-adv-x="1445" d="M1409.829 930.743c-7.314 1.829-14.629 3.657-21.943 3.657-12.8 0-29.257-5.486-40.229-14.629l-323.657-321.829v131.657c0 128-96.914 230.4-224.914 230.4h-563.2c-128 0-235.886-102.4-235.886-230.4v-563.2c0-128 107.886-230.4 235.886-230.4h563.2c128 0 224.914 102.4 224.914 230.4v133.486l325.486-321.829c9.143-10.971 23.771-14.629 36.571-14.629 5.486 0 16.457 1.829 23.771 3.657 18.286 7.314 34.743 25.6 34.743 47.543v868.571c0 20.114-14.629 38.4-34.743 47.543zM634.514 212.114c-31.086-36.571-74.971-54.857-128-54.857-31.086 0-60.343 7.314-87.771 21.943s-47.543 38.4-64 65.829c-14.629 27.429-23.771 56.686-23.771 93.257h115.2c1.829-36.571 7.314-47.543 18.286-62.171s23.771-21.943 40.229-21.943c20.114 0 34.743 9.143 43.886 27.429s16.457 45.714 16.457 82.286c0 34.743-5.486 60.343-18.286 78.629s-29.257 25.6-53.029 25.6c-21.943 0-38.4-7.314-51.2-21.943l-7.314-10.971-93.257 20.114 31.086 303.543h285.257v-91.429h-190.171l-10.971-129.829c21.943 14.629 45.714 21.943 69.486 21.943 49.371 0 87.771-18.286 115.2-53.029s40.229-85.943 40.229-149.943c0-58.514-16.457-107.886-47.543-144.457z" />
<glyph unicode="&#xe921;" glyph-name="vr-cam6" horiz-adv-x="1445" d="M488.229 469.943c-14.629 0-31.086-5.486-40.229-14.629-10.971-7.314-9.143-20.114-27.429-32.914v-42.057c0-42.057 9.143-74.971 20.114-95.086s27.429-31.086 45.714-31.086c18.286 0 34.743 10.971 45.714 31.086s16.457 45.714 16.457 78.629c0 32.914-5.486 58.514-16.457 78.629-10.971 18.286-25.6 27.429-43.886 27.429zM1409.829 930.743c-7.314 1.829-14.629 3.657-21.943 3.657-12.8 0-29.257-5.486-40.229-14.629l-323.657-321.829v131.657c0 128-96.914 230.4-224.914 230.4h-563.2c-128 0-235.886-102.4-235.886-230.4v-563.2c0-128 107.886-230.4 235.886-230.4h563.2c128 0 224.914 102.4 224.914 230.4v133.486l325.486-321.829c9.143-10.971 23.771-14.629 36.571-14.629 5.486 0 16.457 1.829 23.771 3.657 18.286 7.314 34.743 25.6 34.743 47.543v868.571c0 20.114-14.629 38.4-34.743 47.543zM645.486 256c-14.629-31.086-36.571-56.686-62.171-73.143-27.429-18.286-56.686-25.6-91.429-25.6-54.857 0-98.743 21.943-131.657 65.829-32.914 42.057-49.371 100.571-49.371 175.543v43.886c0 65.829 10.971 124.343 31.086 173.714s51.2 91.429 89.6 117.029c38.4 27.429 85.943 43.886 137.143 43.886h16.457v-109.714h-3.657c-43.886 0-78.629-10.971-104.229-36.571s-42.057-60.343-47.543-107.886c25.6 29.257 56.686 43.886 93.257 43.886 43.886 0 78.629-18.286 104.229-54.857s38.4-85.943 38.4-148.114c1.829-40.229-5.486-76.8-20.114-107.886z" />
<glyph unicode="&#xe922;" glyph-name="vr-cam7" horiz-adv-x="1445" d="M1409.829 930.743c-7.314 1.829-14.629 3.657-21.943 3.657-12.8 0-29.257-5.486-40.229-14.629l-323.657-321.829v131.657c0 128-96.914 230.4-224.914 230.4h-563.2c-128 0-235.886-102.4-235.886-230.4v-563.2c0-128 107.886-230.4 235.886-230.4h563.2c128 0 224.914 102.4 224.914 230.4v133.486l325.486-321.829c9.143-10.971 23.771-14.629 36.571-14.629 5.486 0 16.457 1.829 23.771 3.657 18.286 7.314 34.743 25.6 34.743 47.543v868.571c0 20.114-14.629 38.4-34.743 47.543zM694.857 698.514l-197.486-524.8h-122.514l190.171 493.714h-235.886v91.429h365.714v-60.343z" />
<glyph unicode="&#xe923;" glyph-name="vr-cam8" horiz-adv-x="1445" d="M513.829 424.229c-16.457 0-31.086-7.314-40.229-23.771-9.143-14.629-14.629-36.571-14.629-64s5.486-47.543 14.629-62.171c9.143-14.629 23.771-21.943 42.057-21.943s31.086 7.314 40.229 21.943c9.143 14.629 14.629 36.571 14.629 62.171 0 27.429-5.486 47.543-14.629 64-10.971 16.457-23.771 23.771-42.057 23.771zM515.657 521.143c14.629 0 27.429 7.314 34.743 21.943s10.971 32.914 10.971 56.686c0 23.771-3.657 42.057-10.971 56.686s-18.286 21.943-34.743 21.943c-14.629 0-25.6-7.314-32.914-20.114s-10.971-32.914-10.971-56.686c0-23.771 3.657-42.057 10.971-56.686s16.457-23.771 32.914-23.771zM1409.829 930.743c-7.314 1.829-14.629 3.657-21.943 3.657-12.8 0-29.257-5.486-40.229-14.629l-323.657-321.829v131.657c0 128-96.914 230.4-224.914 230.4h-563.2c-128 0-235.886-102.4-235.886-230.4v-563.2c0-128 107.886-230.4 235.886-230.4h563.2c128 0 224.914 102.4 224.914 230.4v133.486l325.486-321.829c9.143-10.971 23.771-14.629 36.571-14.629 5.486 0 16.457 1.829 23.771 3.657 18.286 7.314 34.743 25.6 34.743 47.543v868.571c0 20.114-14.629 38.4-34.743 47.543zM640 202.971c-31.086-31.086-73.143-45.714-126.171-45.714s-95.086 14.629-126.171 45.714c-31.086 31.086-47.543 73.143-47.543 126.171 0 32.914 7.314 62.171 21.943 87.771s34.743 43.886 58.514 58.514c-21.943 12.8-38.4 31.086-51.2 53.029s-18.286 47.543-18.286 76.8c0 53.029 14.629 93.257 43.886 122.514s69.486 43.886 118.857 43.886c49.371 0 89.6-14.629 118.857-45.714 29.257-29.257 43.886-71.314 43.886-122.514 0-29.257-5.486-54.857-18.286-76.8s-29.257-40.229-51.2-53.029c25.6-14.629 43.886-32.914 58.514-58.514 14.629-23.771 21.943-53.029 21.943-87.771 0-51.2-16.457-93.257-47.543-124.343z" />
<glyph unicode="&#xe924;" glyph-name="Vplus-logo" d="M742.8 691.6l92-86.4v-176.4h-92zM834.8 605.2l-92 86.4h-171v-86.4zM853 618l-92 86.4v176.4h92zM761 704.4l92-86.4h171v86.4zM0 549h176l45-362 277.4 362h204.6l-351.4-466.2c0 0-27.4-32.8-35.2-42.8-19.8-24.8-32-24.8-32-24.8h-173.2c0 0-16.4 5.2-26.8 26.8-14 29.6-15.4 46.4-15.4 46.4l-69 460.6z" />
<glyph unicode="&#xe925;" glyph-name="pro-user" horiz-adv-x="975" d="M441.059-19.859c6.306 19.268 4.554 36.083 5.956 52.549 6.306 78.473 11.911 156.946 17.516 235.418 1.051 12.261-3.153 22.421-12.962 30.829-19.618 16.465-8.057 35.383-2.102 52.899 4.905 14.714 16.465 18.918 31.529 19.618 40.638 1.401 42.74-7.007 52.899-45.192 2.803-11.21-1.051-20.669-10.159-28.026-9.108-7.007-13.312-15.765-12.612-27.325 7.007-94.237 13.663-188.475 20.669-282.712 0-1.752 1.051-3.153 2.102-5.956 8.758 8.758 9.108 20.319 12.261 30.128 35.733 111.403 70.766 222.807 106.148 334.21 7.357 23.472 15.064 28.026 38.886 21.37 65.861-18.217 130.321-39.236 189.176-74.619 29.077-17.516 55.351-38.886 73.568-68.313 13.312-21.37 20.669-44.141 20.319-69.364-0.35-37.485-1.401-74.619 0.35-112.104 1.051-20.669-8.057-32.931-24.523-42.389-29.077-16.465-61.307-25.223-93.887-32.23-101.945-22.070-205.29-29.427-308.987-32.23-99.843-2.452-199.335 0.35-298.827 11.561-67.613 7.357-135.225 16.816-199.685 41.689-8.758 3.503-17.166 7.707-25.223 12.261-16.816 9.108-24.873 22.421-24.172 42.74 1.401 30.829 1.752 62.008 0 92.836-3.153 59.906 23.121 104.397 69.715 139.079 56.402 42.039 122.263 63.759 188.475 84.779 9.459 2.803 18.918 5.255 28.727 7.707 20.319 4.905 29.077 0.35 35.383-19.618 24.523-77.072 49.046-154.143 73.568-231.215 12.962-40.988 25.924-81.976 39.236-122.964 2.102-4.554 3.854-8.408 6.656-15.414zM488.003 473.048c-136.276 0-242.425 106.148-242.425 242.775 0 134.525 109.301 244.177 242.775 244.177 133.124 0 241.374-110.002 241.374-245.228 0-135.576-106.148-241.724-241.724-241.724z" />
<glyph unicode="&#xe926;" glyph-name="view-4" d="M0 960h279.273v-279.273h-279.273v279.273zM372.364 960h279.273v-279.273h-279.273v279.273zM744.727 960h279.273v-279.273h-279.273v279.273zM0 587.636h279.273v-279.273h-279.273v279.273zM372.364 587.636h279.273v-279.273h-279.273v279.273zM744.727 587.636h279.273v-279.273h-279.273v279.273zM0 215.273h279.273v-279.273h-279.273v279.273zM372.364 215.273h279.273v-279.273h-279.273v279.273zM744.727 215.273h279.273v-279.273h-279.273v279.273z" />
<glyph unicode="&#xe927;" glyph-name="view-3" d="M0 960h456.145v-456.145h-456.145v456.145zM567.855 960h456.145v-456.145h-456.145v456.145zM0 392.145h456.145v-456.145h-456.145v456.145zM567.855 392.145h456.145v-456.145h-456.145v456.145z" />
<glyph unicode="&#xe928;" glyph-name="view-2" horiz-adv-x="1415" d="M0 960h651.636v-456.145h-651.636v456.145zM0 392.145h651.636v-456.145h-651.636v456.145zM754.036 960h651.636v-456.145h-651.636v456.145zM754.036 392.145h651.636v-456.145h-651.636v456.145z" />
<glyph unicode="&#xe929;" glyph-name="view-1" horiz-adv-x="1462" d="M0 960v-1024h1461.527v1024h-1461.527zM1377.745 10.473h-474.764v875.055h474.764v-875.055z" />
<glyph unicode="&#xe92a;" glyph-name="view-fullscreen" horiz-adv-x="1462" d="M0 960v-1024h1461.527v1024h-1461.527zM1368.436 29.091h-1275.345v837.818h1275.345v-837.818zM186.182 783.127h1089.164v-670.255h-1089.164v670.255z" />
<glyph unicode="&#xe92b;" glyph-name="cubes" d="M813.481 173.798h-3.364c-0.161 0-0.316 0.041-0.477 0.041-0.261-0.007-0.515-0.041-0.779-0.041h-69.806v-54.93h74.43c14.148 0 26.105 12.579 26.105 27.465-0.007 14.893-11.961 27.465-26.109 27.465zM811.081 249.595c0 14.745-11.954 27.197-26.105 27.197h-45.928v-48.064h62.153c4.7 3.433 9.881 11.065 9.881 20.867zM907.459 431.282h-175.089c64.889 0 116.541 53.697 116.541 118.583v265.868c0 64.893-51.651 116.788-116.541 116.788h-265.864c-64.889 0-118.827-51.892-118.827-116.788v-265.864c0-24.094 7.858-46.508 20.331-65.181l-4.714 5.002c-22.157 22.154-51.569 34.359-83.075 34.359-31.509 0-60.989-12.205-83.147-34.359l-162.668-162.706c-45.884-45.884-45.866-120.547 0.017-166.434l162.713-162.709c22.157-22.154 51.717-34.359 83.222-34.359s61.061 12.205 83.219 34.359l162.139 162.709c16.839 16.836 27.946 37.555 31.379 59.307v-136.896c0-64.886 53.938-118.583 118.827-118.583h231.533c64.889 0 116.541 53.697 116.541 118.583v231.533c0.003 64.896-51.648 116.788-116.537 116.788zM614.171 834.636c39.731 0 77.19-15.363 105.483-43.264 10.797-10.65 10.924-28.035 0.271-38.839-10.656-10.801-28.045-10.924-38.842-0.275-17.945 17.694-41.709 27.444-66.911 27.444-52.544 0-95.29-42.746-95.29-95.29s42.746-95.29 95.29-95.29c27.846 0 54.223 12.136 72.367 33.298 9.874 11.515 27.214 12.847 38.726 2.97 11.515-9.87 12.847-27.211 2.973-38.722-28.591-33.353-70.166-52.475-114.069-52.475-82.831 0-150.22 67.389-150.22 150.22 0.003 82.834 67.392 150.223 150.223 150.223zM455.791 234.256c-4.94-14.337-20.568-21.958-34.911-17.018l-40.494 13.949-86.968-86.968 13.595-41.331c4.741-14.409-3.097-29.933-17.509-34.675-2.849-0.937-5.744-1.38-8.586-1.38-11.542 0-22.284 7.33-26.088 18.889l-74.269 225.776c-3.258 9.911-0.625 20.815 6.804 28.141 7.426 7.33 18.367 9.808 28.231 6.41l223.17-76.878c14.347-4.944 21.969-20.575 17.025-34.915zM557.096 314.498v-46.831c-3.433 21.745-14.543 42.471-31.382 59.314l-124.677 124.512c18.673-12.473 41.376-20.211 65.47-20.211h209.42c-64.893 0-118.831-51.892-118.831-116.784zM813.481 63.939h-100.752c-15.168 0-28.608 13.197-28.608 28.364v212.853c0 15.168 13.441 26.565 28.608 26.565h72.25c44.682 0 81.035-36.391 81.035-81.677 0-12.143-2.712-23.668-7.766-34.39 21.842-14.773 36.267-40.37 36.267-68.989-0.003-45.424-36.357-82.728-81.035-82.728zM274.19 202.674l48.414 48.41-72.562 24.997z" />
<glyph unicode="&#xe92c;" glyph-name="kitchen" d="M778.164 591.29h-218.721c19.762 0 35.833 16.071 35.833 35.863s-16.1 35.746-35.833 35.746h-89.453c-19.762 0-35.804-15.955-35.804-35.746s16.071-35.863 35.804-35.863h-218.75c-60.856 0-111.249-54.549-121.043-112.615h769.097c-9.852 58.095-60.246 112.615-121.13 112.615zM901.068 417.209v10.23h-901.068v-51.207h128.367v-317.299c0-67.947 55.043-122.903 122.874-122.903h526.952c67.889 0 122.903 54.956 122.903 122.903v307.069h122.903v51.207h-122.932zM326.657 836.922c3.575-4.708 7.382-9.242 11.363-13.514l9.91-9.939c6.277-6.306 12.119-12.613 16.769-18.28 2.325-2.848 4.243-5.551 5.667-7.789 1.366-2.209 2.616-3.923 2.906-6.481 0.349-2.732-1.075-6.423-3.865-10.114-2.79-3.633-6.684-7.149-11.247-10.666 5.406-2.092 11.305-2.79 17.583-2.034 6.248 0.727 13.107 3.517 18.832 9.474 5.667 5.958 8.835 14.764 9.329 22.523 0.552 7.847-0.639 14.938-2.412 21.332-3.575 12.729-9.503 23.046-15.839 32.52-3.168 4.65-7.091 9.358-9.881 12.991-2.79 3.284-5.376 6.655-7.73 9.997-9.59 13.339-16.304 25.371-18.803 39.495-2.616 14.299 0.291 32.579 8.922 53.532-22.407-4.708-42.343-23.453-48.853-49.667-3.226-12.933-2.528-27.144 0.93-39.612 3.429-12.729 9.503-23.947 16.42-33.77zM459.441 836.922c3.575-4.708 7.411-9.242 11.363-13.514l9.881-9.939c6.277-6.306 12.090-12.613 16.856-18.28 2.238-2.848 4.156-5.551 5.609-7.789 1.424-2.209 2.616-3.923 2.848-6.481 0.378-2.732-1.017-6.423-3.807-10.114-2.761-3.633-6.684-7.149-11.305-10.666 5.464-2.092 11.392-2.79 17.641-2.034 6.219 0.727 13.165 3.517 18.832 9.474 5.725 5.958 8.835 14.764 9.358 22.523 0.552 7.847-0.61 14.938-2.383 21.332-3.633 12.729-9.59 23.046-15.926 32.52-3.11 4.65-7.062 9.358-9.852 12.991-2.732 3.284-5.376 6.655-7.672 9.997-9.62 13.339-16.362 25.371-18.861 39.495-2.616 14.24 0.232 32.52 8.835 53.474-22.378-4.708-42.285-23.453-48.766-49.667-3.226-12.933-2.557-27.144 0.901-39.612 3.487-12.671 9.445-23.889 16.449-33.712zM580.427 836.922c3.546-4.708 7.353-9.242 11.334-13.514l9.91-9.939c6.277-6.306 12.061-12.613 16.769-18.28 2.325-2.848 4.243-5.551 5.667-7.789 1.366-2.209 2.557-3.923 2.906-6.481 0.378-2.732-1.075-6.423-3.865-10.114-2.761-3.633-6.684-7.149-11.305-10.666 5.464-2.092 11.392-2.79 17.583-2.034 6.248 0.727 13.165 3.517 18.89 9.474 5.667 5.958 8.806 14.764 9.3 22.523 0.581 7.847-0.61 14.938-2.383 21.332-3.575 12.729-9.474 23.046-15.839 32.52-3.168 4.65-7.091 9.358-9.881 12.991-2.79 3.284-5.406 6.655-7.73 9.997-9.59 13.339-16.304 25.371-18.774 39.495-2.645 14.299 0.262 32.579 8.835 53.532-22.378-4.708-42.343-23.453-48.795-49.667-3.197-12.933-2.528-27.144 0.93-39.612 3.429-12.729 9.445-23.947 16.449-33.77z" />
<glyph unicode="&#xe92d;" glyph-name="list-with-dots" d="M109.716 557.708c-30.482 0-56.383-10.662-77.721-31.997-21.328-21.328-31.995-47.228-31.995-77.711 0-30.468 10.668-56.385 32.003-77.717 21.336-21.328 47.243-31.991 77.721-31.991 30.472 0 56.375 10.664 77.713 31.991 21.33 21.33 31.997 47.247 31.997 77.717 0 30.482-10.668 56.383-32.003 77.713-21.332 21.328-47.237 31.995-77.715 31.995zM109.722 850.286c-30.482 0-56.383-10.668-77.721-31.997-21.328-21.336-31.995-47.237-31.995-77.713 0-30.48 10.662-56.383 31.995-77.719 21.336-21.33 47.243-31.993 77.721-31.993 30.472 0 56.375 10.666 77.713 31.993 21.33 21.336 31.997 47.241 31.997 77.719 0 30.476-10.668 56.377-31.997 77.713-21.328 21.33-47.231 31.997-77.713 31.997zM109.722 265.132c-30.482 0-56.391-10.658-77.721-31.985-21.328-21.342-31.995-47.247-31.995-77.713 0-30.492 10.662-56.383 31.995-77.725 21.336-21.33 47.243-31.993 77.721-31.993 30.472 0 56.375 10.664 77.713 31.993 21.33 21.342 31.997 47.233 31.997 77.725 0 30.468-10.668 56.385-31.997 77.713-21.328 21.328-47.231 31.985-77.713 31.985zM1018.578 808.289c-3.629 3.609-7.904 5.42-12.863 5.42h-694.862c-4.95 0-9.237-1.805-12.855-5.42-3.617-3.627-5.428-7.904-5.428-12.855v-109.722c0-4.954 1.811-9.229 5.428-12.857 3.621-3.613 7.908-5.42 12.855-5.42h694.862c4.96 0 9.239 1.801 12.863 5.42 3.623 3.627 5.424 7.904 5.424 12.857v109.72c-0.002 4.952-1.809 9.237-5.424 12.857zM1005.715 521.137h-694.862c-4.95 0-9.237-1.801-12.855-5.428-3.617-3.617-5.428-7.904-5.428-12.855v-109.718c0-4.948 1.811-9.233 5.428-12.851 3.621-3.629 7.908-5.432 12.855-5.432h694.862c4.96 0 9.239 1.801 12.863 5.432 3.623 3.619 5.424 7.904 5.424 12.851v109.718c0 4.952-1.807 9.247-5.424 12.855-3.631 3.619-7.906 5.428-12.863 5.428zM1005.715 228.572h-694.862c-4.95 0-9.237-1.807-12.855-5.432-3.617-3.623-5.428-7.904-5.428-12.849v-109.718c0-4.96 1.811-9.239 5.428-12.863 3.621-3.617 7.908-5.418 12.855-5.418h694.862c4.96 0 9.239 1.801 12.863 5.418 3.623 3.625 5.424 7.904 5.424 12.863v109.718c0 4.946-1.807 9.241-5.424 12.849-3.631 3.611-7.906 5.432-12.863 5.432z" />
<glyph unicode="&#xe92e;" glyph-name="office-chair" d="M884.737 24.187v22.112c0 9.411-5.403 17.951-13.877 22.003-5.403 2.592-130.233 60.847-334.493 65.313v83.264c14.531 8.431 24.378 24.007 24.378 42.002v26.905h172.911c0.152 0 0.37 0 0.479 0 26.927 0 48.756 21.851 48.756 48.756 0 4.074-0.545 7.995-1.481 11.764 42.547 14.052 64.899 26.774 66.881 27.972 7.451 4.357 12.047 12.352 12.047 21.045v133.327h23.114c13.485 0 24.378 10.914 24.378 24.378s-10.893 24.378-24.378 24.378h-94.962c-13.463 0-24.356-10.914-24.356-24.378s10.893-24.378 24.356-24.378h23.136v-118.273c-11.938-5.49-32.743-14.052-62.067-22.722l-16.513 16.513c-11.154 11.154-27.057 16.252-42.634 13.616-0.545-0.087-49.148-8.082-129.645-10.609v42.59c88.754 5.512 133.893 24.683 139.47 27.21 19.062 8.627 30.478 28.473 28.386 49.3l-37.362 371.158c-1.786 17.755-13.137 33.136-29.563 40.063-5.49 2.309-56.163 22.504-149.709 22.504s-144.197-20.195-149.666-22.504c-16.47-6.928-27.798-22.286-29.585-40.063l-37.362-371.245c-2.113-20.827 9.324-40.673 28.408-49.3 5.555-2.505 50.695-21.698 139.448-27.21v-42.59c-80.497 2.527-129.078 10.479-129.601 10.609-15.685 2.68-31.48-2.418-42.678-13.616l-16.492-16.513c-29.367 8.671-50.172 17.232-62.067 22.722v118.251h23.114c13.485 0 24.378 10.914 24.378 24.378s-10.893 24.378-24.378 24.378h-94.984c-13.485 0-24.378-10.914-24.378-24.378s10.893-24.378 24.378-24.378h23.114v-133.327c0-8.627 4.597-16.688 12.047-21.066 2.070-1.198 24.53-14.073 67.556-28.168-2.418-9.869-2.026-20.435 2.048-30.216 7.56-18.213 25.336-30.086 45.052-30.086h172.911v-26.927c0-17.995 9.847-33.528 24.378-42.002v-83.264c-204.282-4.422-329.068-62.677-334.493-65.269-8.453-4.074-13.856-12.636-13.856-22.003v-22.156c-13.79-8.322-23.114-23.289-23.114-40.586 0-26.23 21.306-47.514 47.492-47.514 26.251 0 47.514 21.284 47.514 47.514 0 17.298-9.324 32.286-23.136 40.586v5.969c36.621 14.553 143.936 51.196 299.593 54.747v-60.716c-13.79-8.322-23.114-23.289-23.114-40.586 0-26.23 21.306-47.514 47.492-47.514 26.251 0 47.514 21.284 47.514 47.514 0 17.298-9.324 32.286-23.136 40.586v60.716c155.068-3.595 262.797-40.238 299.593-54.747v-5.969c-13.812-8.322-23.136-23.289-23.136-40.586 0-26.23 21.328-47.514 47.514-47.514 26.23 0 47.492 21.284 47.492 47.514-0.022 17.428-9.302 32.417-23.114 40.717zM434.128 819.179c1.089 0.457 27.646 11.437 77.861 11.437s76.75-10.98 77.861-11.437c6.209-2.636 9.128-9.782 6.514-15.969-1.982-4.64-6.514-7.451-11.241-7.451-1.59 0-3.181 0.327-4.771 0.959-0.174 0.087-23.615 9.52-68.384 9.52s-68.21-9.433-68.45-9.542c-6.209-2.592-13.311 0.392-15.903 6.579-2.571 6.187 0.349 13.311 6.514 15.903zM421.95 745.174c1.264 0.523 31.828 13.158 90.061 13.158s88.797-12.636 90.061-13.158c6.209-2.636 9.128-9.782 6.536-15.969-2.004-4.64-6.536-7.451-11.263-7.451-1.59 0-3.181 0.305-4.749 0.959-0.261 0.087-27.842 11.263-80.584 11.263s-80.344-11.154-80.628-11.285c-6.209-2.571-13.311 0.37-15.903 6.557s0.261 13.311 6.47 15.925zM511.989 661.715c-60.716 0-92.501-12.875-92.806-13.006-6.252-2.549-13.333 0.327-15.947 6.536-2.571 6.209 0.327 13.311 6.514 15.925 1.416 0.61 36.033 14.923 102.239 14.923s100.823-14.313 102.239-14.923c6.165-2.614 9.063-9.716 6.514-15.925-2.004-4.662-6.514-7.472-11.285-7.472-1.569 0-3.159 0.305-4.706 0.937-0.24 0.109-32.025 13.006-92.762 13.006z" />
<glyph unicode="&#xe92f;" glyph-name="restaurant-cutlery" d="M182.586 960c-50.896 0-118.401-137.068-118.401-241.7 0-68.965 23.098-106.404 57.603-123.937 27.828-14.161 44.135-43.965 41.102-75.034l-49.634-506.9c-1.902-19.568 4.535-39.030 17.73-53.566 13.197-14.566 31.933-22.863 51.602-22.863s38.4 8.299 51.6 22.863c13.197 14.537 19.63 34.001 17.73 53.566l-49.634 506.9c-3.036 31.069 13.299 60.871 41.1 75.034 34.505 17.535 57.603 54.972 57.603 123.937 0 104.633-64.795 241.7-118.401 241.7zM636.894 960c-9.369 0-16.972-7.597-16.972-17.001v-209.132c0-9.433-7.635-17.066-17.066-17.066-9.433 0-17.066 7.633-17.066 17.066v209.132c0 9.404-7.608 17.001-16.972 17.001h-0.199c-9.367 0-16.962-7.597-16.962-17.001v-209.132c0-9.433-7.635-17.066-17.076-17.066-9.433 0-17.066 7.633-17.066 17.066v209.132c0 9.404-7.595 17.001-16.964 17.001h-0.206c-9.367 0-16.962-7.597-16.962-17.001v-209.132c0-9.433-7.635-17.066-17.066-17.066-9.433 0-17.068 7.633-17.068 17.066v209.132c0 9.404-7.606 17.001-16.972 17.001-8.897 0-16.102-7.193-16.102-16.063 0-52.929 0-218.602 0-225.637 0-68.965 23.108-106.404 57.605-123.937 27.836-14.161 44.133-43.965 41.1-75.034l-49.632-506.9c-1.902-19.568 4.533-39.030 17.73-53.566 13.206-14.566 31.939-22.863 51.6-22.863 19.669 0 38.402 8.299 51.608 22.863 13.195 14.537 19.632 34.001 17.73 53.566l-49.632 506.9c-3.036 31.069 13.299 60.871 41.1 75.034 34.495 17.535 57.594 54.972 57.594 123.937 0 7.035 0 172.706 0 225.637 0.006 8.87-7.188 16.063-16.086 16.063zM914.056 476.432c6.433 0 11.632 5.197 11.632 11.634v451.534c0 11.268-9.13 20.4-20.425 20.4-9.769 0-18.37-6.464-21.065-15.868l-70.709-246.534c-20.662-72.129-7.998-149.769 34.536-211.595 4.138-6.005 10.965-9.572 18.235-9.572l-45.437-464.003c-1.902-19.568 4.535-39.030 17.741-53.566 13.195-14.566 31.93-22.863 51.602-22.863 19.659 0 38.39 8.299 51.598 22.863 13.197 14.537 19.632 34.001 17.728 53.566l-45.435 464.003z" />
<glyph unicode="&#xe930;" glyph-name="shower" d="M88.18 457.68h561.98v-113.94h-561.98v113.94zM666.328 960h-57.666c-139.056 0-253.846-105.87-268.014-241.24-0.002 0-0.006 0-0.008 0-105.7-12.8-190.040-95.94-204.68-201.080h466.42c-14.48 104.032-97.208 186.528-201.358 200.656 13.654 102.406 101.56 181.664 207.64 181.664h57.666c115.514 0 209.492-93.978 209.492-209.492v-754.508h60v754.508c0 148.598-120.894 269.492-269.492 269.492zM149.68 281.8h60v-68.14h-60v68.14zM149.68 153.8h60v-68.14h-60v68.14zM149.68 25.8h60v-68.14h-60v68.14zM275.82 281.8h60v-68.14h-60v68.14zM275.82 153.8h60v-68.14h-60v68.14zM275.82 25.8h60v-68.14h-60v68.14zM401.96 281.8h60v-68.14h-60v68.14zM401.96 153.8h60v-68.14h-60v68.14zM401.96 25.8h60v-68.14h-60v68.14zM528.1 281.8h60v-68.14h-60v68.14zM528.1 153.8h60v-68.14h-60v68.14zM528.1 25.8h60v-68.14h-60v68.14z" />
<glyph unicode="&#xe931;" glyph-name="tree" d="M499.467 399.255v-41.188c0-14.171-7.461-27.631-20.056-34.123-14.567-7.509-31.947-4.682-43.353 6.716l-26.952 26.958-25.348-25.348 62.954-62.95c7.013-7.016 10.878-16.343 10.878-26.265v-274.422c0-18.018 14.608-32.627 32.627-32.627h54.348c18.018 0 32.627 14.608 32.627 32.627v233.158c0 9.923 3.862 19.249 10.878 26.265l52.176 52.176-25.348 25.348-16.174-16.177c-11.402-11.388-28.751-14.212-43.322-6.734-12.609 6.472-20.087 19.925-20.087 34.095v82.489h-35.847zM997.907 538.622c0 119.777-92.908 218.257-210.444 227.145-41.019 115.588-150.776 194.232-275.463 194.232s-234.444-78.645-275.463-194.236c-117.536-8.888-210.444-107.368-210.444-227.145 0-61.112 24.224-118.867 67.125-161.489-1.727-10.612-2.596-21.345-2.596-32.089 0-110.361 89.784-200.145 200.142-200.145h118.918v93.698l-67.412 67.408c-7.013 7.009-10.881 16.339-10.881 26.265s3.865 19.256 10.888 26.269l40.564 40.567c14.484 14.477 38.047 14.477 52.531 0l16.187-16.191v27.103c0 20.48 16.663 37.143 37.143 37.143h57.375c20.48 0 37.143-16.66 37.143-37.143v-68.363l5.41 5.413c7.013 7.013 16.343 10.878 26.262 10.878 9.923 0.003 19.253-3.862 26.269-10.878l40.567-40.567c0 0 0 0 0.003 0 14.481-14.484 14.481-38.050 0-52.531l-56.634-56.634v-52.438h108.141c110.358 0 200.142 89.784 200.142 200.145 0 10.743-0.869 21.476-2.596 32.089 42.898 42.625 67.122 100.38 67.122 161.492z" />
<glyph unicode="&#xe932;" glyph-name="compass" d="M525.408 423.234l-22.723 22.708 60.75-135.459 125.329 125.322-227.33 102.096 18.944-42.251 58.718-58.711c3.808-3.801 3.808-9.918 0-13.704-3.771-3.779-9.925-3.779-13.689 0zM545.968 704.239l10.4-10.422 157.576-75.294-126.864 126.842zM703.616 711.095l-75.382 75.382-27.423-27.423 130.226-130.219c3.793-3.793 3.793-9.918 0-13.711-1.389-1.389-3.099-2.083-4.882-2.456l94.385-45.116 150.369 150.377c15.129 15.129 15.129 39.686 0 54.837l-150.793 150.786c-15.122 15.137-39.686 15.137-54.837 0l-68.548-68.548 130.219-130.226c3.801-3.793 3.801-9.911 0-13.704s-9.911-3.793-13.704 0l-130.219 130.219-41.126-41.126 75.382-75.382c3.793-3.793 3.793-9.911 0-13.704-3.757-3.764-9.896-3.764-13.667 0.015zM285.5 443.786l-27.415-27.423 75.382-75.375c3.793-3.793 3.793-9.911 0-13.704-3.793-3.808-9.918-3.808-13.711 0l-75.382 75.375-41.126-41.126 130.219-130.219c3.793-3.808 3.793-9.911 0-13.711s-9.918-3.801-13.711 0l-130.219 130.212-27.415-27.423 75.382-75.375c3.793-3.793 3.793-9.911 0-13.704-3.793-3.808-9.918-3.808-13.711 0l-75.382 75.375-41.126-41.126 130.226-130.219c3.793-3.793 3.793-9.911 0-13.704-3.793-3.808-9.918-3.808-13.711 0l-130.197 130.234-82.238-82.238c-15.137-15.137-15.137-39.7 0-54.844l150.786-150.786c15.129-15.144 39.686-15.144 54.837 0l213.604 213.633-112.298 233.352-32.795 32.795zM951.841 407.93l-5.555 16.642c-11.314 45.255-41.718 63.344-41.718 63.344l-452.751 216.418c6.198 12.125-4.4 24.696-4.4 24.696l-161.625 161.64-51.723-51.723c0 0-65.471 65.471-89.7 89.7-11.679 11.679-21.897 14.705-29.323 14.705-7.996 0-12.783-3.494-12.783-3.494l-16.898-16.861-12.929-12.944-12.944-12.929c0 0-16.964-21.831 7.287-46.059 24.251-24.251 89.7-89.7 89.7-89.7l-51.723-51.738 161.632-161.632c0 0 7.872-4.663 16.861-4.663 3.223 0 6.607 0.607 9.808 2.244l217.397-451.736c0 0 18.579-29.908 63.849-41.228l19.551-6.446c0 0 18.060-19.178 40.336-42.829 12.52-13.287 21.152-20.165 24.565-20.165 2.668 0 2.156 4.188-2.193 12.768l-17.95 35.447 12.863-4.224-244.461 545.090 20.099 20.099 4.809-2.149 540.047-242.546-6.3 18.871 42.602-20.552c0 0 23.037 10.905 13.339 27.079l-69.769 34.877z" />
</font>
</defs>
</svg>
